<svg width="21" height="22" viewBox="0 0 21 22" fill="none" xmlns="http://www.w3.org/2000/svg">
<path d="M12.001 1.11218C12.5418 0.722176 13.171 0.599976 13.6 0.599976H15.4798C16.0688 0.599927 16.6466 0.759892 17.1516 1.06278L19.4695 2.45378C19.6618 2.5693 19.821 2.73261 19.9314 2.92784C20.0419 3.12306 20.1 3.34356 20.1 3.56788V5.14998C20.1 5.66715 19.8946 6.16314 19.5289 6.52883C19.1632 6.89453 18.6672 7.09998 18.15 7.09998H17.5V17.5494C18.0473 17.6339 18.5959 17.838 19.0535 18.2189C19.7165 18.7701 20.1 19.619 20.1 20.75C20.1 20.9224 20.0316 21.0877 19.9097 21.2096C19.7878 21.3315 19.6224 21.4 19.45 21.4H4.50005C3.68184 21.4001 2.88432 21.1428 2.22038 20.6646C1.55644 20.1865 1.05971 19.5116 0.800499 18.7355C0.541284 17.9595 0.532716 17.1215 0.776007 16.3403C1.0193 15.5591 1.50212 14.8742 2.15615 14.3826C2.29413 14.283 2.46565 14.2416 2.63387 14.2671C2.80209 14.2926 2.95361 14.383 3.05589 14.519C3.15816 14.655 3.20305 14.8256 3.1809 14.9943C3.15876 15.163 3.07135 15.3163 2.93745 15.4213C2.50125 15.749 2.1792 16.2056 2.01689 16.7265C1.85459 17.2474 1.86025 17.8061 2.03308 18.3236C2.20591 18.8411 2.53715 19.2911 2.9799 19.6099C3.42265 19.9287 3.95446 20.1002 4.50005 20.1C4.87445 20.1 5.11105 20.009 5.26705 19.905C5.42128 19.7986 5.54462 19.6533 5.62455 19.4838C5.72897 19.2702 5.78868 19.0375 5.80005 18.8V18.7415L5.80525 18.5985C5.84836 17.846 5.96151 17.0992 6.14325 16.3677C6.48515 15.0027 7.17805 13.2529 8.58985 11.8398C10.987 9.44388 11 6.23028 11 5.14998V3.19998C11 2.20808 11.429 1.52558 12.001 1.11218ZM12.2012 6.96998C11.9997 8.60278 11.3835 10.8856 9.51025 12.7602C8.32205 13.9471 7.71495 15.4473 7.40555 16.6823C7.24436 17.3298 7.14339 17.9909 7.10395 18.657C7.1022 18.6947 7.1009 18.7324 7.10005 18.7701V18.8429L7.09485 18.93C7.0661 19.3378 6.95558 19.7357 6.76985 20.1H14.7947C14.6647 19.684 14.4008 19.2563 13.9471 19.0184C13.6377 18.865 13.2953 18.79 12.95 18.8H11.65C11.4777 18.8 11.3123 18.7315 11.1904 18.6096C11.0685 18.4877 11 18.3224 11 18.15C11 17.9776 11.0685 17.8123 11.1904 17.6904C11.3123 17.5685 11.4777 17.5 11.65 17.5H12.95C13.1788 17.5 13.3946 17.5182 13.6 17.552V14.25C13.6 14.0776 13.6685 13.9123 13.7904 13.7904C13.9123 13.6685 14.0777 13.6 14.25 13.6C14.4224 13.6 14.5878 13.6685 14.7097 13.7904C14.8316 13.9123 14.9 14.0776 14.9 14.25V18.0824C15.654 18.6258 16.0011 19.4344 16.1324 20.1H18.7324C18.6349 19.6736 18.4399 19.3993 18.2215 19.2186C17.8874 18.9391 17.4025 18.8 16.85 18.8C16.6777 18.8 16.5123 18.7315 16.3904 18.6096C16.2685 18.4877 16.2 18.3224 16.2 18.15V6.44998C16.2 6.27758 16.2685 6.11225 16.3904 5.99036C16.5123 5.86846 16.6777 5.79998 16.85 5.79998H18.15C18.3224 5.79998 18.4878 5.73149 18.6097 5.60959C18.7316 5.4877 18.8 5.32237 18.8 5.14998V3.56788L16.4834 2.17688C16.1802 1.99533 15.8333 1.89962 15.4798 1.89998H13.6C13.379 1.89998 13.0332 1.97148 12.7615 2.16778C12.521 2.33938 12.3 2.63188 12.3 3.19998V5.14998C12.3 5.26308 12.339 5.44638 12.4378 5.58288C12.5119 5.68688 12.6419 5.79998 12.95 5.79998C13.2581 5.79998 13.3881 5.68558 13.4622 5.58288C13.5488 5.45481 13.5966 5.30452 13.6 5.14998C13.6 4.97758 13.6685 4.81225 13.7904 4.69036C13.9123 4.56846 14.0777 4.49998 14.25 4.49998C14.4224 4.49998 14.5878 4.56846 14.7097 4.69036C14.8316 4.81225 14.9 4.97758 14.9 5.14998C14.9 5.47108 14.809 5.93778 14.5178 6.34208C14.2019 6.78018 13.6819 7.09998 12.95 7.09998C12.6946 7.10241 12.4409 7.05836 12.2012 6.96998ZM7.10005 18.8013L6.45005 18.8L7.10005 18.8013Z" fill="black"/>
</svg>
