<svg width="16" height="16" viewBox="0 0 16 16" fill="none" xmlns="http://www.w3.org/2000/svg">
<path d="M1.81079 5.51714L5.77797 4.94058L7.55141 1.34527C7.59985 1.24683 7.67954 1.16714 7.77797 1.11871C8.02485 0.996832 8.32485 1.09839 8.44829 1.34527L10.2217 4.94058L14.1889 5.51714C14.2983 5.53277 14.3983 5.58433 14.4748 5.66246C14.5674 5.75759 14.6184 5.88558 14.6167 6.0183C14.6149 6.15103 14.5605 6.27762 14.4655 6.37027L11.5952 9.16871L12.2733 13.1203C12.2892 13.2122 12.279 13.3067 12.2439 13.3932C12.2088 13.4796 12.1502 13.5545 12.0747 13.6093C11.9993 13.6641 11.9099 13.6967 11.8169 13.7033C11.7238 13.71 11.6308 13.6904 11.5483 13.6468L7.99985 11.7812L4.45141 13.6468C4.35454 13.6984 4.24204 13.7156 4.13422 13.6968C3.86235 13.65 3.67954 13.3921 3.72641 13.1203L4.40454 9.16871L1.53422 6.37027C1.4561 6.29371 1.40454 6.19371 1.38891 6.08433C1.34672 5.81089 1.53735 5.55777 1.81079 5.51714Z" fill="#FFCF24"/>
</svg>
