<?xml version="1.0" encoding="utf-8"?>
<!-- Generator: Adobe Illustrator 22.1.0, SVG Export Plug-In . SVG Version: 6.00 Build 0)  -->
<svg version="1.1" id="Layer_1" xmlns="http://www.w3.org/2000/svg" xmlns:xlink="http://www.w3.org/1999/xlink" x="0px" y="0px"
	 viewBox="0 0 111 111" style="enable-background:new 0 0 111 111;" xml:space="preserve">
<style type="text/css">
	.st0{fill:#C9C9C9;}
</style>
<path id="logo" class="st0" d="M55.5,0.1C24.8,0.1,0,24.9,0,55.6c0,17.2,7.8,32.5,20,42.7l0,0C21,79.6,36.4,64.7,55.3,64.7
	c19,0,34.5,15,35.3,33.8l0,0C103,88.4,111,72.9,111,55.6C111,24.9,86.2,0.1,55.5,0.1z M55.1,58.1C44.5,58.1,36,49.5,36,38.9
	c0-10.6,8.6-19.1,19.1-19.1c10.6,0,19.1,8.6,19.1,19.1C74.2,49.5,65.6,58.1,55.1,58.1z"/>
</svg>
