<svg width="19" height="19" viewBox="0 0 19 19" fill="none" xmlns="http://www.w3.org/2000/svg">
<path d="M7.97095 10.1333L6.51407 8.67639L5.72095 9.46952L7.97095 11.7195L12.4709 7.21952L11.6778 6.42639L7.97095 10.1333Z" fill="#14AE5C"/>
<path d="M9.09595 17.6764L5.62195 15.8241C4.63158 15.2972 3.80337 14.5106 3.22622 13.5486C2.64907 12.5867 2.34476 11.4857 2.34595 10.3639V3.05139C2.34625 2.75311 2.46487 2.46714 2.67578 2.25623C2.8867 2.04531 3.17267 1.92669 3.47095 1.92639H14.721C15.0192 1.92669 15.3052 2.04531 15.5161 2.25623C15.727 2.46714 15.8457 2.75311 15.846 3.05139V10.3639C15.8471 11.4857 15.5428 12.5867 14.9657 13.5486C14.3885 14.5106 13.5603 15.2972 12.57 15.8241L9.09595 17.6764ZM3.47095 3.05139V10.3639C3.47002 11.2818 3.71907 12.1826 4.19138 12.9696C4.66369 13.7567 5.34142 14.4003 6.15183 14.8313L9.09595 16.4012L12.0401 14.8318C12.8506 14.4008 13.5284 13.7571 14.0007 12.97C14.473 12.1828 14.722 11.2819 14.721 10.3639V3.05139H3.47095Z" fill="#14AE5C"/>
</svg>
