<svg width="77" height="23" viewBox="0 0 77 23" fill="none" xmlns="http://www.w3.org/2000/svg">
<circle cx="11.7878" cy="11.8014" r="10.9795" fill="#CF1928"/>
<circle cx="24.3358" cy="11.8014" r="10.9795" fill="#FFD400" fill-opacity="0.7"/>
<g clip-path="url(#clip0_43_2493)">
<path d="M56.6287 8.27263L52.5235 15.3667H49.8383L47.8245 9.69519C47.6954 9.33955 47.5921 9.22725 47.2306 9.0775C46.4352 8.79995 45.5933 8.5986 44.7262 8.47853L44.7778 8.27263H49.0896C49.6724 8.27454 50.166 8.58466 50.2514 9.00263L51.31 13.1019L53.9435 8.27263H56.6287ZM67.1369 13.0457C67.1369 11.1739 63.5739 11.0616 63.5998 10.238C63.5998 9.97596 63.9354 9.71391 64.6841 9.63904C65.5432 9.58089 66.408 9.69077 67.1886 9.95725L67.6275 8.45981C66.8694 8.24878 66.0642 8.14091 65.2522 8.1416C62.7477 8.1416 60.9921 9.11494 60.9662 10.4813C60.9404 11.5108 62.2314 12.0724 63.1867 12.4093C64.1419 12.7462 64.5034 12.9896 64.5034 13.289C64.5034 13.757 63.703 13.9816 62.9801 13.9816C62.0716 13.9998 61.1725 13.8449 60.3724 13.5324L59.9077 15.086C60.8017 15.3461 61.7587 15.4734 62.7219 15.4603C65.3813 15.479 67.1111 14.5244 67.1369 13.0457ZM73.7465 15.3667H76.0961L74.0564 8.27263H71.8876C71.4116 8.2685 70.981 8.47663 70.8032 8.79673L66.982 15.3667H69.6414L70.1577 14.2998H73.4109L73.7465 15.3667ZM70.9065 12.8585L72.2491 10.2006L73.0236 12.8585H70.9065ZM60.2433 8.27263L58.152 15.3667H55.6217L57.7131 8.27263H60.2433Z" fill="#1A1F71"/>
</g>
<defs>
<clipPath id="clip0_43_2493">
<rect width="31.3699" height="21.9589" fill="white" transform="translate(44.7262 0.821899)"/>
</clipPath>
</defs>
</svg>
