<svg width="16" height="23" viewBox="0 0 16 23" fill="none" xmlns="http://www.w3.org/2000/svg">
<path fill-rule="evenodd" clip-rule="evenodd" d="M6.4503 11.8678L0.637138 0.933708C0.603741 0.870897 0.583043 0.802125 0.576224 0.731315C0.569406 0.660506 0.576602 0.589047 0.5974 0.521018C0.639405 0.383628 0.734266 0.268551 0.861117 0.201103C0.987968 0.133656 1.13642 0.119361 1.27381 0.161366C1.34183 0.182164 1.4051 0.216158 1.45999 0.261407C1.51488 0.306655 1.56032 0.362273 1.59372 0.425083L7.40743 11.3592L8.23185 10.9204C8.48311 10.7868 8.75824 10.7041 9.0415 10.6768C9.32477 10.6496 9.61062 10.6784 9.88275 10.7616C10.1549 10.8449 10.4079 10.9809 10.6275 11.162C10.847 11.343 11.0287 11.5656 11.1623 11.8169L11.5133 12.4766L15.234 17.9231L7.51576 22.0267L5.08097 15.8962L4.73051 15.2364C4.59691 14.9852 4.5141 14.7101 4.48682 14.4268C4.45954 14.1436 4.48832 13.8578 4.57151 13.5856C4.65471 13.3135 4.79069 13.0605 4.97169 12.8409C5.1527 12.6213 5.37518 12.4396 5.62643 12.306L6.45085 11.8678H6.4503ZM6.13451 13.2626L8.73993 11.8775C8.86555 11.8107 9.00309 11.7693 9.14471 11.7557C9.28634 11.7421 9.42926 11.7564 9.56532 11.798C9.70138 11.8396 9.82791 11.9076 9.93769 11.9981C10.0475 12.0886 10.1383 12.1999 10.2051 12.3255L10.5561 12.9847L6.03701 15.3875L5.68655 14.7278C5.61975 14.6022 5.57835 14.4646 5.56471 14.323C5.55107 14.1814 5.56546 14.0385 5.60705 13.9024C5.64865 13.7663 5.71664 13.6398 5.80714 13.53C5.89765 13.4202 6.00889 13.3294 6.13451 13.2626V13.2626ZM6.5841 16.7466L8.0753 20.502L9.06872 19.9738L7.89601 17.6907L8.86018 17.1956L10.0258 19.4652L13.6561 17.5347L11.3768 14.198L6.5841 16.7466V16.7466Z" fill="black"/>
</svg>
