<svg width="20" height="17" viewBox="0 0 20 17" fill="none" xmlns="http://www.w3.org/2000/svg">
<path d="M17 4H3C1.89543 4 1 4.89543 1 6V14C1 15.1046 1.89543 16 3 16H17C18.1046 16 19 15.1046 19 14V6C19 4.89543 18.1046 4 17 4Z" stroke="#000" stroke-width="2" stroke-linecap="round" stroke-linejoin="round"/>
<path d="M8 9L8.211 9.106C8.76646 9.38376 9.37896 9.52836 10 9.52836C10.621 9.52836 11.2335 9.38376 11.789 9.106L12 9M7 3C7 2.46957 7.21071 1.96086 7.58579 1.58579C7.96086 1.21071 8.46957 1 9 1H11C11.5304 1 12.0391 1.21071 12.4142 1.58579C12.7893 1.96086 13 2.46957 13 3V4H7V3Z" stroke="#000" stroke-width="2" stroke-linecap="round" stroke-linejoin="round"/>
</svg>
