<svg width="22" height="22" viewBox="0 0 22 22" fill="none" xmlns="http://www.w3.org/2000/svg">
<path d="M14.75 0.5C13.6959 0.499758 12.6565 0.746424 11.7149 1.22023C10.7734 1.69404 9.95589 2.38181 9.328 3.22844C8.7001 4.07506 8.27925 5.057 8.09917 6.09555C7.91909 7.13411 7.98479 8.20041 8.291 9.209L0.5 17V21.5H5L12.791 13.709C13.7194 13.9908 14.6977 14.0692 15.6591 13.9387C16.6206 13.8083 17.5426 13.4721 18.3624 12.953C19.1821 12.434 19.8804 11.7444 20.4095 10.9311C20.9386 10.1178 21.2862 9.20001 21.4285 8.24025C21.5709 7.28049 21.5046 6.30133 21.2343 5.36948C20.964 4.43764 20.496 3.57502 19.8622 2.84042C19.2283 2.10582 18.4436 1.51649 17.5614 1.11261C16.6792 0.708724 15.7203 0.499775 14.75 0.5ZM14.75 12.5C14.2336 12.4997 13.7201 12.4234 13.226 12.2735L12.3657 12.0125L11.7305 12.6478L9.34475 15.0335L8.3105 14L7.25 15.0605L8.28425 16.0947L7.09475 17.2843L6.0605 16.25L5 17.3105L6.03425 18.3447L4.379 20H2V17.621L9.3515 10.2695L9.9875 9.63425L9.7265 8.774C9.40593 7.71724 9.42676 6.58631 9.78601 5.54207C10.1453 4.49784 10.8246 3.59347 11.7275 2.95762C12.6304 2.32177 13.7108 1.98681 14.815 2.0004C15.9192 2.01398 16.9911 2.37542 17.878 3.03329C18.765 3.69116 19.4219 4.61197 19.7554 5.66473C20.0888 6.71749 20.0818 7.84859 19.7354 8.89714C19.3889 9.94569 18.7206 10.8583 17.8256 11.5051C16.9305 12.152 15.8543 12.5001 14.75 12.5Z" fill="#000"/>
</svg>
