<svg width="141" height="40" viewBox="0 0 141 40" fill="none" xmlns="http://www.w3.org/2000/svg">
<mask id="path-1-inside-1_43_1120" fill="white">
<path fill-rule="evenodd" clip-rule="evenodd" d="M36.4 20V20C36.4 29.0575 29.0575 36.4 20 36.4V36.4V36.4C10.9425 36.4 3.6 29.0575 3.6 20V20V20C3.6 10.9425 10.9425 3.6 20 3.6V3.6V3.6C29.0575 3.6 36.4 10.9425 36.4 20V20ZM17.7668 5.3502C14.5757 5.8703 11.8276 7.2757 9.5517 9.5517C7.885 11.2183 6.6835 13.1461 5.9648 15.3065C5.3823 17.0577 5.2535 17.9076 5.2535 20C5.2535 22.0924 5.3823 22.9423 5.9648 24.6935C6.6835 26.8539 7.885 28.7817 9.5517 30.4483C11.2183 32.115 13.1461 33.3165 15.3065 34.0352C17.0577 34.6177 17.9076 34.7465 20 34.7465C22.0924 34.7465 22.9423 34.6177 24.6935 34.0352C26.8539 33.3165 28.7817 32.115 30.4483 30.4483C32.115 28.7817 33.3165 26.8539 34.0352 24.6935C34.6177 22.9423 34.7465 22.0924 34.7465 20C34.7465 17.9076 34.6177 17.0577 34.0352 15.3065C33.3165 13.1461 32.115 11.2183 30.4483 9.5517C28.365 7.4683 25.8583 6.107 22.9512 5.4804C21.7362 5.2185 18.9973 5.1497 17.7668 5.3502ZM22.153 6.4473C26.426 7.1403 30.0717 9.7677 32.0956 13.6128C32.6995 14.76 33.2365 16.3336 33.4564 17.6C33.7087 19.0532 33.6122 21.791 33.2595 23.1863C31.9307 28.4439 27.8137 32.3148 22.4374 33.3617C21.2618 33.5906 18.8866 33.594 17.6364 33.3687C12.2879 32.4044 8.0753 28.4677 6.7405 23.1863C6.3878 21.791 6.2913 19.0532 6.5436 17.6C7.5299 11.9193 12.0567 7.4175 17.75 6.4555C18.8362 6.272 21.0468 6.2678 22.153 6.4473ZM18.9844 7.0394C17.9362 7.4138 16.9323 8.3389 16.0607 9.7334C15.542 10.5635 14.7684 12.3329 14.637 12.9902C14.5793 13.2786 14.5925 13.2896 15.2312 13.4869C16.3283 13.8258 18.4211 14.185 19.375 14.1983C19.4727 14.1996 19.5 13.4043 19.5 10.55C19.5 8.5425 19.4662 6.902 19.425 6.9044C19.3838 6.9068 19.1855 6.9675 18.9844 7.0394ZM20.1 10.5433V13.386C20.1 13.8318 20.4806 14.1827 20.925 14.1465V14.1465C22.0117 14.0579 23.506 13.7713 24.5646 13.4484C25.5618 13.1442 25.5355 13.292 24.8882 11.6334C23.8948 9.0882 22.1071 7.1479 20.56 6.9359V6.9359C20.3167 6.90253 20.1 7.09158 20.1 7.33711V10.5433ZM16.35 7.3893C14.2151 8.0485 12.6163 8.9627 11.0528 10.418V10.418C10.7444 10.705 10.7732 11.2018 11.1127 11.4513L11.1544 11.4819C11.8187 11.9699 13.6646 13 13.8749 13C13.9299 13 14.1193 12.5866 14.2957 12.0814C14.9283 10.2697 15.7989 8.7903 16.8593 7.725C17.2015 7.3813 17.4294 7.1026 17.3657 7.1057C17.3021 7.1088 16.845 7.2364 16.35 7.3893ZM23.1331 7.7174C24.177 8.7661 25.0686 10.2631 25.6539 11.95C25.8066 12.39 25.9661 12.7894 26.0084 12.8377C26.1438 12.992 28.2092 11.7955 29 11.1046V11.1046C29.187 10.9412 29.1911 10.6518 29.0088 10.4832L28.75 10.2439C27.2388 8.8463 24.8225 7.5861 22.8267 7.1547C22.5123 7.0868 22.5208 7.1023 23.1331 7.7174ZM29.4998 11.5103C28.8602 12.0187 27.7741 12.7108 27.0242 13.0878C26.5709 13.3158 26.2 13.5583 26.2 13.6268C26.2 13.6953 26.2461 13.9085 26.3024 14.1007C26.5168 14.8325 26.821 17.0021 26.8842 18.25V18.25C26.9212 18.9801 27.5206 19.5549 28.2516 19.5612L30.0236 19.5764L32.468 19.5975C32.8046 19.6004 33.0699 19.3116 33.0385 18.9764V18.9764C32.8881 17.3731 32.3343 15.3581 31.6962 14.0929C31.3398 13.3863 30.2922 11.8185 29.9842 11.5309V11.5309C29.8502 11.4057 29.6433 11.3962 29.4998 11.5103V11.5103ZM9.7213 11.875C9.3101 12.3968 8.5747 13.5529 8.2743 14.15C7.6647 15.3614 7.1089 17.4048 6.9615 18.9764V18.9764C6.9301 19.3116 7.19539 19.6004 7.53202 19.5975L9.9764 19.5764L11.7985 19.5608C12.5011 19.5547 13.077 19.0017 13.1116 18.3V18.3C13.1766 16.9822 13.4137 15.2454 13.6626 14.2639C13.7443 13.9416 13.7974 13.6679 13.7806 13.6557C13.7638 13.6434 13.2816 13.3996 12.709 13.1139C12.1365 12.8281 11.3167 12.3481 10.8872 12.0471C10.4578 11.7462 10.0863 11.5 10.0616 11.5C10.037 11.5 9.8838 11.6688 9.7213 11.875ZM24.6 14.0613C23.706 14.3518 21.7859 14.6995 21.0651 14.7014C20.7818 14.7021 20.4488 14.7299 20.325 14.763V14.763C20.1923 14.7986 20.1 14.9188 20.1 15.0562V17.2117V17.2117C20.1 18.5307 21.1693 19.6 22.4883 19.6H23.2618H25.5462C26.0199 19.6 26.3935 19.1973 26.3581 18.725V18.725C26.1725 16.2461 25.7543 13.8629 25.5 13.8344C25.4175 13.8252 25.0125 13.9273 24.6 14.0613ZM14.1169 14.975C13.8893 16.1344 13.7518 17.2137 13.6459 18.675V18.675C13.6097 19.1747 14.0053 19.6 14.5062 19.6H16.5394H17.1107C18.4303 19.6 19.5 18.5303 19.5 17.2107V17.2107C19.5 14.5116 19.5637 14.7 18.6518 14.7C17.963 14.7 16.0316 14.3681 15.2 14.1068C14.8425 13.9945 14.5001 13.902 14.439 13.9013C14.3774 13.9006 14.2341 14.3782 14.1169 14.975ZM6.9657 20.275C6.8935 20.3923 7.0819 22.0406 7.2506 22.7682C7.6324 24.4145 8.4733 26.2742 9.405 27.5328L9.56797 27.753C9.7543 28.0047 10.1134 28.0493 10.3556 27.8508V27.8508C10.943 27.3694 12.3034 26.5238 13.0853 26.154C13.6324 25.8951 13.704 25.8294 13.6543 25.6315C13.4532 24.8303 13.1877 22.8739 13.1416 21.8533C13.1117 21.1915 13.0668 20.5488 13.0417 20.425V20.425C13.0152 20.2941 12.9002 20.2 12.7666 20.2H10.004C8.3583 20.2 6.991 20.2338 6.9657 20.275ZM13.6 20.3855C13.6 21.5348 14.103 25.3455 14.2771 25.5153C14.3172 25.5544 14.7325 25.4747 15.2 25.3382C16.2884 25.0204 18.1509 24.7 18.9099 24.7V24.7C19.2358 24.7 19.5 24.4358 19.5 24.1099V22.45V22.45C19.5 21.2074 18.4926 20.2 17.25 20.2H16.55C13.7437 20.2 13.6 20.209 13.6 20.3855ZM20.1231 22.425L20.1365 23.5336C20.1441 24.1632 20.6359 24.6804 21.2643 24.7197V24.7197C22.406 24.7911 24.3795 25.1801 25.2231 25.5L25.3422 25.5452C25.5324 25.6173 25.7435 25.5106 25.7983 25.3147V25.3147C25.9544 24.7566 26.2759 22.3728 26.3499 21.225V21.225C26.3857 20.6699 25.9451 20.2 25.3889 20.2H23.2561H22.3214C21.0968 20.2 20.1083 21.2005 20.1231 22.425V22.425ZM26.9587 20.4235C26.9334 20.5481 26.8883 21.1915 26.8584 21.8533C26.8119 22.8823 26.5465 24.8315 26.3419 25.6467C26.2866 25.8671 26.3547 25.9252 27.1156 26.3077C28.0006 26.7524 28.8742 27.3082 29.5784 27.8744C30.0858 28.2825 30.0773 28.2867 30.778 27.2706C32.0492 25.427 32.9137 22.9508 33.0197 20.85V20.85C33.0362 20.5228 32.7769 20.2476 32.4493 20.2447L30.0273 20.2235L27.2355 20.1991C27.1014 20.1979 26.9853 20.2921 26.9587 20.4235V20.4235ZM18.8 25.2676C17.5725 25.3567 15.7246 25.7476 14.7668 26.1207C14.5078 26.2216 14.4893 26.2618 14.5505 26.5905C14.6384 27.0624 15.1922 28.492 15.6019 29.3045C16.3727 30.8332 17.4679 32.0685 18.5176 32.593C19.5925 33.1301 19.5 33.4637 19.5 29.05C19.5 26.0273 19.4731 25.2038 19.375 25.2175C19.3063 25.2271 19.0475 25.2496 18.8 25.2676ZM20.1712 25.2621C20.132 25.3013 20.1 27.0633 20.1 29.1778V32.6412C20.1 32.8397 20.2797 32.9897 20.475 32.9543V32.9543C21.8855 32.6985 23.2814 31.4329 24.2983 29.4879C24.7473 28.6291 25.3551 27.0908 25.4542 26.5627V26.5627C25.4916 26.3634 25.373 26.1679 25.179 26.109L24.685 25.959C23.6958 25.6587 22.6692 25.4393 21.875 25.3585C21.5588 25.3263 21.062 25.2755 20.7712 25.2455C20.4804 25.2155 20.2104 25.223 20.1712 25.2621ZM13.2 26.7577C12.5429 27.0632 10.8315 28.1878 10.5508 28.4987V28.4987C10.4398 28.6216 10.4466 28.8104 10.5661 28.925L11.1083 29.4448C12.0538 30.3513 13.1374 31.0873 14.4407 31.708C15.3367 32.1348 16.9964 32.7 17.3538 32.7C17.426 32.7 17.2148 32.4422 16.8844 32.127C15.8165 31.1084 14.8656 29.4634 14.1896 27.4649C14.0101 26.9342 13.8377 26.5004 13.8066 26.501C13.7755 26.5015 13.5025 26.617 13.2 26.7577ZM25.8104 27.4649C25.1479 29.4234 24.3162 30.8863 23.2126 32.0345L22.7975 32.4663C22.7218 32.5451 22.793 32.6744 22.9 32.6526V32.6526C24.8889 32.2478 27.3317 30.9404 28.8893 29.4471L29.3247 29.0296C29.4955 28.8659 29.4875 28.5905 29.3076 28.4369V28.4369C28.645 27.8713 26.4299 26.5 26.1788 26.5C26.1557 26.5 25.9899 26.9342 25.8104 27.4649Z"/>
</mask>
<path fill-rule="evenodd" clip-rule="evenodd" d="M36.4 20V20C36.4 29.0575 29.0575 36.4 20 36.4V36.4V36.4C10.9425 36.4 3.6 29.0575 3.6 20V20V20C3.6 10.9425 10.9425 3.6 20 3.6V3.6V3.6C29.0575 3.6 36.4 10.9425 36.4 20V20ZM17.7668 5.3502C14.5757 5.8703 11.8276 7.2757 9.5517 9.5517C7.885 11.2183 6.6835 13.1461 5.9648 15.3065C5.3823 17.0577 5.2535 17.9076 5.2535 20C5.2535 22.0924 5.3823 22.9423 5.9648 24.6935C6.6835 26.8539 7.885 28.7817 9.5517 30.4483C11.2183 32.115 13.1461 33.3165 15.3065 34.0352C17.0577 34.6177 17.9076 34.7465 20 34.7465C22.0924 34.7465 22.9423 34.6177 24.6935 34.0352C26.8539 33.3165 28.7817 32.115 30.4483 30.4483C32.115 28.7817 33.3165 26.8539 34.0352 24.6935C34.6177 22.9423 34.7465 22.0924 34.7465 20C34.7465 17.9076 34.6177 17.0577 34.0352 15.3065C33.3165 13.1461 32.115 11.2183 30.4483 9.5517C28.365 7.4683 25.8583 6.107 22.9512 5.4804C21.7362 5.2185 18.9973 5.1497 17.7668 5.3502ZM22.153 6.4473C26.426 7.1403 30.0717 9.7677 32.0956 13.6128C32.6995 14.76 33.2365 16.3336 33.4564 17.6C33.7087 19.0532 33.6122 21.791 33.2595 23.1863C31.9307 28.4439 27.8137 32.3148 22.4374 33.3617C21.2618 33.5906 18.8866 33.594 17.6364 33.3687C12.2879 32.4044 8.0753 28.4677 6.7405 23.1863C6.3878 21.791 6.2913 19.0532 6.5436 17.6C7.5299 11.9193 12.0567 7.4175 17.75 6.4555C18.8362 6.272 21.0468 6.2678 22.153 6.4473ZM18.9844 7.0394C17.9362 7.4138 16.9323 8.3389 16.0607 9.7334C15.542 10.5635 14.7684 12.3329 14.637 12.9902C14.5793 13.2786 14.5925 13.2896 15.2312 13.4869C16.3283 13.8258 18.4211 14.185 19.375 14.1983C19.4727 14.1996 19.5 13.4043 19.5 10.55C19.5 8.5425 19.4662 6.902 19.425 6.9044C19.3838 6.9068 19.1855 6.9675 18.9844 7.0394ZM20.1 10.5433V13.386C20.1 13.8318 20.4806 14.1827 20.925 14.1465V14.1465C22.0117 14.0579 23.506 13.7713 24.5646 13.4484C25.5618 13.1442 25.5355 13.292 24.8882 11.6334C23.8948 9.0882 22.1071 7.1479 20.56 6.9359V6.9359C20.3167 6.90253 20.1 7.09158 20.1 7.33711V10.5433ZM16.35 7.3893C14.2151 8.0485 12.6163 8.9627 11.0528 10.418V10.418C10.7444 10.705 10.7732 11.2018 11.1127 11.4513L11.1544 11.4819C11.8187 11.9699 13.6646 13 13.8749 13C13.9299 13 14.1193 12.5866 14.2957 12.0814C14.9283 10.2697 15.7989 8.7903 16.8593 7.725C17.2015 7.3813 17.4294 7.1026 17.3657 7.1057C17.3021 7.1088 16.845 7.2364 16.35 7.3893ZM23.1331 7.7174C24.177 8.7661 25.0686 10.2631 25.6539 11.95C25.8066 12.39 25.9661 12.7894 26.0084 12.8377C26.1438 12.992 28.2092 11.7955 29 11.1046V11.1046C29.187 10.9412 29.1911 10.6518 29.0088 10.4832L28.75 10.2439C27.2388 8.8463 24.8225 7.5861 22.8267 7.1547C22.5123 7.0868 22.5208 7.1023 23.1331 7.7174ZM29.4998 11.5103C28.8602 12.0187 27.7741 12.7108 27.0242 13.0878C26.5709 13.3158 26.2 13.5583 26.2 13.6268C26.2 13.6953 26.2461 13.9085 26.3024 14.1007C26.5168 14.8325 26.821 17.0021 26.8842 18.25V18.25C26.9212 18.9801 27.5206 19.5549 28.2516 19.5612L30.0236 19.5764L32.468 19.5975C32.8046 19.6004 33.0699 19.3116 33.0385 18.9764V18.9764C32.8881 17.3731 32.3343 15.3581 31.6962 14.0929C31.3398 13.3863 30.2922 11.8185 29.9842 11.5309V11.5309C29.8502 11.4057 29.6433 11.3962 29.4998 11.5103V11.5103ZM9.7213 11.875C9.3101 12.3968 8.5747 13.5529 8.2743 14.15C7.6647 15.3614 7.1089 17.4048 6.9615 18.9764V18.9764C6.9301 19.3116 7.19539 19.6004 7.53202 19.5975L9.9764 19.5764L11.7985 19.5608C12.5011 19.5547 13.077 19.0017 13.1116 18.3V18.3C13.1766 16.9822 13.4137 15.2454 13.6626 14.2639C13.7443 13.9416 13.7974 13.6679 13.7806 13.6557C13.7638 13.6434 13.2816 13.3996 12.709 13.1139C12.1365 12.8281 11.3167 12.3481 10.8872 12.0471C10.4578 11.7462 10.0863 11.5 10.0616 11.5C10.037 11.5 9.8838 11.6688 9.7213 11.875ZM24.6 14.0613C23.706 14.3518 21.7859 14.6995 21.0651 14.7014C20.7818 14.7021 20.4488 14.7299 20.325 14.763V14.763C20.1923 14.7986 20.1 14.9188 20.1 15.0562V17.2117V17.2117C20.1 18.5307 21.1693 19.6 22.4883 19.6H23.2618H25.5462C26.0199 19.6 26.3935 19.1973 26.3581 18.725V18.725C26.1725 16.2461 25.7543 13.8629 25.5 13.8344C25.4175 13.8252 25.0125 13.9273 24.6 14.0613ZM14.1169 14.975C13.8893 16.1344 13.7518 17.2137 13.6459 18.675V18.675C13.6097 19.1747 14.0053 19.6 14.5062 19.6H16.5394H17.1107C18.4303 19.6 19.5 18.5303 19.5 17.2107V17.2107C19.5 14.5116 19.5637 14.7 18.6518 14.7C17.963 14.7 16.0316 14.3681 15.2 14.1068C14.8425 13.9945 14.5001 13.902 14.439 13.9013C14.3774 13.9006 14.2341 14.3782 14.1169 14.975ZM6.9657 20.275C6.8935 20.3923 7.0819 22.0406 7.2506 22.7682C7.6324 24.4145 8.4733 26.2742 9.405 27.5328L9.56797 27.753C9.7543 28.0047 10.1134 28.0493 10.3556 27.8508V27.8508C10.943 27.3694 12.3034 26.5238 13.0853 26.154C13.6324 25.8951 13.704 25.8294 13.6543 25.6315C13.4532 24.8303 13.1877 22.8739 13.1416 21.8533C13.1117 21.1915 13.0668 20.5488 13.0417 20.425V20.425C13.0152 20.2941 12.9002 20.2 12.7666 20.2H10.004C8.3583 20.2 6.991 20.2338 6.9657 20.275ZM13.6 20.3855C13.6 21.5348 14.103 25.3455 14.2771 25.5153C14.3172 25.5544 14.7325 25.4747 15.2 25.3382C16.2884 25.0204 18.1509 24.7 18.9099 24.7V24.7C19.2358 24.7 19.5 24.4358 19.5 24.1099V22.45V22.45C19.5 21.2074 18.4926 20.2 17.25 20.2H16.55C13.7437 20.2 13.6 20.209 13.6 20.3855ZM20.1231 22.425L20.1365 23.5336C20.1441 24.1632 20.6359 24.6804 21.2643 24.7197V24.7197C22.406 24.7911 24.3795 25.1801 25.2231 25.5L25.3422 25.5452C25.5324 25.6173 25.7435 25.5106 25.7983 25.3147V25.3147C25.9544 24.7566 26.2759 22.3728 26.3499 21.225V21.225C26.3857 20.6699 25.9451 20.2 25.3889 20.2H23.2561H22.3214C21.0968 20.2 20.1083 21.2005 20.1231 22.425V22.425ZM26.9587 20.4235C26.9334 20.5481 26.8883 21.1915 26.8584 21.8533C26.8119 22.8823 26.5465 24.8315 26.3419 25.6467C26.2866 25.8671 26.3547 25.9252 27.1156 26.3077C28.0006 26.7524 28.8742 27.3082 29.5784 27.8744C30.0858 28.2825 30.0773 28.2867 30.778 27.2706C32.0492 25.427 32.9137 22.9508 33.0197 20.85V20.85C33.0362 20.5228 32.7769 20.2476 32.4493 20.2447L30.0273 20.2235L27.2355 20.1991C27.1014 20.1979 26.9853 20.2921 26.9587 20.4235V20.4235ZM18.8 25.2676C17.5725 25.3567 15.7246 25.7476 14.7668 26.1207C14.5078 26.2216 14.4893 26.2618 14.5505 26.5905C14.6384 27.0624 15.1922 28.492 15.6019 29.3045C16.3727 30.8332 17.4679 32.0685 18.5176 32.593C19.5925 33.1301 19.5 33.4637 19.5 29.05C19.5 26.0273 19.4731 25.2038 19.375 25.2175C19.3063 25.2271 19.0475 25.2496 18.8 25.2676ZM20.1712 25.2621C20.132 25.3013 20.1 27.0633 20.1 29.1778V32.6412C20.1 32.8397 20.2797 32.9897 20.475 32.9543V32.9543C21.8855 32.6985 23.2814 31.4329 24.2983 29.4879C24.7473 28.6291 25.3551 27.0908 25.4542 26.5627V26.5627C25.4916 26.3634 25.373 26.1679 25.179 26.109L24.685 25.959C23.6958 25.6587 22.6692 25.4393 21.875 25.3585C21.5588 25.3263 21.062 25.2755 20.7712 25.2455C20.4804 25.2155 20.2104 25.223 20.1712 25.2621ZM13.2 26.7577C12.5429 27.0632 10.8315 28.1878 10.5508 28.4987V28.4987C10.4398 28.6216 10.4466 28.8104 10.5661 28.925L11.1083 29.4448C12.0538 30.3513 13.1374 31.0873 14.4407 31.708C15.3367 32.1348 16.9964 32.7 17.3538 32.7C17.426 32.7 17.2148 32.4422 16.8844 32.127C15.8165 31.1084 14.8656 29.4634 14.1896 27.4649C14.0101 26.9342 13.8377 26.5004 13.8066 26.501C13.7755 26.5015 13.5025 26.617 13.2 26.7577ZM25.8104 27.4649C25.1479 29.4234 24.3162 30.8863 23.2126 32.0345L22.7975 32.4663C22.7218 32.5451 22.793 32.6744 22.9 32.6526V32.6526C24.8889 32.2478 27.3317 30.9404 28.8893 29.4471L29.3247 29.0296C29.4955 28.8659 29.4875 28.5905 29.3076 28.4369V28.4369C28.645 27.8713 26.4299 26.5 26.1788 26.5C26.1557 26.5 25.9899 26.9342 25.8104 27.4649Z" fill="white"/>
<path d="M-1 20C-1 31.598 8.40202 41 20 41V39C9.50659 39 1 30.4934 1 20H-1ZM20 -1C8.40202 -1 -1 8.40202 -1 20H1C1 9.50659 9.50659 1 20 1V-1ZM41 20C41 8.40202 31.598 -1 20 -1V1C30.4934 1 39 9.50659 39 20H41ZM17.7668 5.3502L17.4452 3.37623L17.4451 3.37625L17.7668 5.3502ZM9.5517 9.5517L10.9659 10.966L10.9659 10.9659L9.5517 9.5517ZM5.9648 15.3065L4.06706 14.6752L4.06703 14.6752L5.9648 15.3065ZM5.9648 24.6935L4.06703 25.3248L4.06706 25.3248L5.9648 24.6935ZM9.5517 30.4483L10.966 29.0341L10.9659 29.034L9.5517 30.4483ZM15.3065 34.0352L14.6752 35.9329L14.6752 35.933L15.3065 34.0352ZM24.6935 34.0352L25.3248 35.933L25.3248 35.9329L24.6935 34.0352ZM30.4483 30.4483L29.0341 29.034L29.034 29.0341L30.4483 30.4483ZM34.0352 24.6935L35.9329 25.3248L35.933 25.3248L34.0352 24.6935ZM34.0352 15.3065L35.933 14.6752L35.9329 14.6752L34.0352 15.3065ZM30.4483 9.5517L29.0341 10.9659L29.0341 10.966L30.4483 9.5517ZM22.9512 5.4804L22.5298 7.43549L22.5298 7.4355L22.9512 5.4804ZM22.153 6.4473L21.8327 8.42148L21.8328 8.42151L22.153 6.4473ZM32.0956 13.6128L30.3258 14.5444L30.3258 14.5444L32.0956 13.6128ZM33.4564 17.6L35.4269 17.2579L35.4269 17.2578L33.4564 17.6ZM33.2595 23.1863L31.3205 22.6962L31.3205 22.6962L33.2595 23.1863ZM22.4374 33.3617L22.8196 35.3248L22.8197 35.3248L22.4374 33.3617ZM17.6364 33.3687L17.2815 35.337L17.2817 35.337L17.6364 33.3687ZM6.7405 23.1863L8.67953 22.6962L8.67951 22.6962L6.7405 23.1863ZM6.5436 17.6L4.57308 17.2579L4.57308 17.2579L6.5436 17.6ZM17.75 6.4555L17.4168 4.48344L17.4168 4.48345L17.75 6.4555ZM18.9844 7.0394L19.6571 8.92286L19.6577 8.92265L18.9844 7.0394ZM16.0607 9.7334L14.3647 8.67337L14.3646 8.67357L16.0607 9.7334ZM14.637 12.9902L16.5981 13.3826L16.5982 13.3823L14.637 12.9902ZM15.2312 13.4869L14.6409 15.3978L14.6409 15.3978L15.2312 13.4869ZM19.375 14.1983L19.3471 16.1981L19.3484 16.1981L19.375 14.1983ZM24.5646 13.4484L25.1481 15.3614L25.1482 15.3614L24.5646 13.4484ZM24.8882 11.6334L26.7513 10.9063L26.7513 10.9062L24.8882 11.6334ZM16.35 7.3893L16.9401 9.30028L16.9403 9.30021L16.35 7.3893ZM11.1544 11.4819L9.97007 13.0935L9.97034 13.0937L11.1544 11.4819ZM14.2957 12.0814L12.4075 11.4221L12.4075 11.4221L14.2957 12.0814ZM16.8593 7.725L15.442 6.31388L15.4418 6.31405L16.8593 7.725ZM17.3657 7.1057L17.2685 5.10806L17.2683 5.10807L17.3657 7.1057ZM23.1331 7.7174L24.5506 6.30643L24.5505 6.30642L23.1331 7.7174ZM25.6539 11.95L23.7644 12.6056L23.7645 12.6057L25.6539 11.95ZM26.0084 12.8377L24.5038 14.1554L24.5051 14.1568L26.0084 12.8377ZM28.75 10.2439L30.1079 8.77558L28.75 10.2439ZM22.8267 7.1547L23.2493 5.19985L23.2489 5.19977L22.8267 7.1547ZM27.0242 13.0878L26.1259 11.3009L26.1255 11.3011L27.0242 13.0878ZM26.3024 14.1007L24.383 14.6629L24.3831 14.663L26.3024 14.1007ZM30.0236 19.5764L30.0408 17.5765H30.0408L30.0236 19.5764ZM31.6962 14.0929L33.4819 13.1923L33.4819 13.1922L31.6962 14.0929ZM9.7213 11.875L8.15046 10.6371L8.15044 10.6371L9.7213 11.875ZM8.2743 14.15L10.0608 15.049L10.0609 15.0489L8.2743 14.15ZM9.9764 19.5764L9.95922 17.5765H9.95916L9.9764 19.5764ZM13.6626 14.2639L15.6012 14.7555L15.6013 14.7553L13.6626 14.2639ZM13.7806 13.6557L12.5991 15.2694L12.6054 15.274L13.7806 13.6557ZM12.709 13.1139L11.8157 14.9033L11.8161 14.9035L12.709 13.1139ZM10.8872 12.0471L12.035 10.4093L12.0349 10.4092L10.8872 12.0471ZM24.6 14.0613L23.9821 12.1591L23.9819 12.1592L24.6 14.0613ZM21.0651 14.7014L21.07 16.7014L21.0704 16.7014L21.0651 14.7014ZM25.5 13.8344L25.7227 11.8468L25.7217 11.8467L25.5 13.8344ZM14.1169 14.975L12.1544 14.5896L12.1544 14.5897L14.1169 14.975ZM15.2 14.1068L15.7995 12.1988L15.7994 12.1987L15.2 14.1068ZM14.439 13.9013L14.4619 11.9014L14.4617 11.9014L14.439 13.9013ZM6.9657 20.275L8.66892 21.3234L8.67001 21.3216L6.9657 20.275ZM7.2506 22.7682L5.30228 23.2199L5.30231 23.22L7.2506 22.7682ZM9.405 27.5328L11.0125 26.3429L11.0125 26.3428L9.405 27.5328ZM13.0853 26.154L13.9404 27.962L13.9408 27.9618L13.0853 26.154ZM13.6543 25.6315L11.7145 26.1184L11.7145 26.1186L13.6543 25.6315ZM13.1416 21.8533L15.1396 21.7631L15.1396 21.763L13.1416 21.8533ZM14.2771 25.5153L12.8807 26.9471L12.8809 26.9473L14.2771 25.5153ZM15.2 25.3382L15.7606 27.258L15.7606 27.258L15.2 25.3382ZM25.2231 25.5L24.514 27.3701L24.5141 27.3701L25.2231 25.5ZM26.8584 21.8533L28.8564 21.9436V21.9436L26.8584 21.8533ZM26.3419 25.6467L24.4021 25.1598L24.402 25.16L26.3419 25.6467ZM27.1156 26.3077L26.2173 28.0946L26.2176 28.0948L27.1156 26.3077ZM29.5784 27.8744L30.8319 26.3159L30.8316 26.3157L29.5784 27.8744ZM30.778 27.2706L32.4245 28.406L32.4245 28.4059L30.778 27.2706ZM30.0273 20.2235L30.0448 18.2236H30.0448L30.0273 20.2235ZM18.8 25.2676L18.9448 27.2624L18.9451 27.2623L18.8 25.2676ZM14.7668 26.1207L14.0409 24.2571L14.0408 24.2571L14.7668 26.1207ZM14.5505 26.5905L12.5843 26.9566L12.5843 26.9567L14.5505 26.5905ZM15.6019 29.3045L17.3877 28.4041L17.3877 28.404L15.6019 29.3045ZM18.5176 32.593L19.4116 30.8039L19.4116 30.8039L18.5176 32.593ZM19.375 25.2175L19.0984 23.2367L19.0982 23.2367L19.375 25.2175ZM20.1712 25.2621L18.7588 23.8461L18.757 23.8479L20.1712 25.2621ZM24.2983 29.4879L26.0707 30.4146L26.0707 30.4145L24.2983 29.4879ZM24.685 25.959L25.2661 24.0453L25.266 24.0452L24.685 25.959ZM21.875 25.3585L21.6724 27.3482L21.6726 27.3482L21.875 25.3585ZM13.2 26.7577L14.0432 28.5713L14.0435 28.5711L13.2 26.7577ZM11.1083 29.4448L9.72416 30.8885L9.72417 30.8885L11.1083 29.4448ZM14.4407 31.708L15.3008 29.9024L15.3007 29.9023L14.4407 31.708ZM16.8844 32.127L18.2649 30.6799L18.2648 30.6798L16.8844 32.127ZM14.1896 27.4649L12.295 28.1057L12.295 28.1057L14.1896 27.4649ZM13.8066 26.501L13.8388 28.5008L13.8452 28.5006L13.8066 26.501ZM25.8104 27.4649L27.7049 28.1058L27.705 28.1057L25.8104 27.4649ZM23.2126 32.0345L24.6545 33.4205L24.6545 33.4204L23.2126 32.0345ZM28.8893 29.4471L30.2734 30.8908L30.2734 30.8908L28.8893 29.4471ZM25.179 26.109L25.76 24.1952L25.179 26.109ZM29.3247 29.0296L30.7089 30.4733L29.3247 29.0296ZM22.7975 32.4663L21.3557 31.0803L22.7975 32.4663ZM20.1365 23.5336L18.1367 23.5578L20.1365 23.5336ZM9.56797 27.753L7.96043 28.9429L9.56797 27.753ZM28.2516 19.5612L28.2688 17.5613L28.2516 19.5612ZM11.7985 19.5608L11.7814 17.5608L11.7985 19.5608ZM27.2355 20.1991L27.218 22.199L27.2355 20.1991ZM11.1127 11.4513L9.92837 13.0629L11.1127 11.4513ZM7.53202 19.5975L7.51478 17.5976L7.53202 19.5975ZM29.0088 10.4832L27.6508 11.9516L29.0088 10.4832ZM10.5661 28.925L11.9503 27.4813L10.5661 28.925ZM32.468 19.5975L32.4507 21.5974L32.468 19.5975ZM32.4493 20.2447L32.4668 18.2448L32.4493 20.2447ZM17.4451 3.37625C13.8422 3.96346 10.7113 5.56354 8.13746 8.13752L10.9659 10.9659C12.9439 8.98786 15.3092 7.77714 18.0885 7.32415L17.4451 3.37625ZM8.13753 8.13744C6.25893 10.0159 4.88739 12.2093 4.06706 14.6752L7.86254 15.9378C8.47961 14.0829 9.51107 12.4207 10.9659 10.966L8.13753 8.13744ZM4.06703 14.6752C3.40843 16.6552 3.2535 17.7213 3.2535 20H7.2535C7.2535 18.0939 7.35617 17.4602 7.86257 15.9378L4.06703 14.6752ZM3.2535 20C3.2535 22.2787 3.40843 23.3448 4.06703 25.3248L7.86257 24.0623C7.35617 22.5398 7.2535 21.9061 7.2535 20H3.2535ZM4.06706 25.3248C4.88739 27.7907 6.25893 29.9841 8.13753 31.8626L10.9659 29.034C9.51107 27.5793 8.47961 25.9171 7.86254 24.0622L4.06706 25.3248ZM8.13744 31.8625C10.0159 33.7411 12.2093 35.1126 14.6752 35.9329L15.9378 32.1375C14.0829 31.5204 12.4207 30.4889 10.966 29.0341L8.13744 31.8625ZM14.6752 35.933C16.6552 36.5916 17.7213 36.7465 20 36.7465V32.7465C18.0939 32.7465 17.4602 32.6438 15.9378 32.1374L14.6752 35.933ZM20 36.7465C22.2787 36.7465 23.3448 36.5916 25.3248 35.933L24.0623 32.1374C22.5398 32.6438 21.9061 32.7465 20 32.7465V36.7465ZM25.3248 35.9329C27.7907 35.1126 29.9841 33.7411 31.8626 31.8625L29.034 29.0341C27.5793 30.4889 25.9171 31.5204 24.0622 32.1375L25.3248 35.9329ZM31.8625 31.8626C33.7411 29.9841 35.1126 27.7907 35.9329 25.3248L32.1375 24.0622C31.5204 25.9171 30.4889 27.5793 29.0341 29.034L31.8625 31.8626ZM35.933 25.3248C36.5916 23.3448 36.7465 22.2787 36.7465 20H32.7465C32.7465 21.9061 32.6438 22.5398 32.1374 24.0623L35.933 25.3248ZM36.7465 20C36.7465 17.7213 36.5916 16.6552 35.933 14.6752L32.1374 15.9378C32.6438 17.4602 32.7465 18.0939 32.7465 20H36.7465ZM35.9329 14.6752C35.1126 12.2093 33.7411 10.0159 31.8625 8.13744L29.0341 10.966C30.4889 12.4207 31.5204 14.0829 32.1375 15.9378L35.9329 14.6752ZM31.8625 8.13752C29.5045 5.7794 26.6521 4.23216 23.3726 3.5253L22.5298 7.4355C25.0645 7.98184 27.2255 9.1572 29.0341 10.9659L31.8625 8.13752ZM23.3726 3.52531C22.5787 3.35416 21.4403 3.26828 20.415 3.24253C19.3894 3.21677 18.2479 3.24544 17.4452 3.37623L18.0884 7.32417C18.5162 7.25446 19.3594 7.21728 20.3146 7.24127C21.2702 7.26527 22.1087 7.34474 22.5298 7.43549L23.3726 3.52531ZM21.8328 8.42151C25.4829 9.01348 28.5932 11.2527 30.3258 14.5444L33.8654 12.6812C31.5502 8.28269 27.3691 5.26712 22.4732 4.4731L21.8328 8.42151ZM30.3258 14.5444C30.8333 15.5084 31.302 16.8832 31.4859 17.9422L35.4269 17.2578C35.171 15.784 34.5657 14.0116 33.8654 12.6812L30.3258 14.5444ZM31.4859 17.9421C31.5783 18.4744 31.6205 19.3669 31.5861 20.3444C31.5515 21.3245 31.4467 22.197 31.3205 22.6962L35.1985 23.6764C35.425 22.7803 35.5448 21.5863 35.5836 20.4853C35.6225 19.3818 35.5868 18.1788 35.4269 17.2579L31.4859 17.9421ZM31.3205 22.6962C30.184 27.1931 26.6809 30.4978 22.0551 31.3986L22.8197 35.3248C28.9465 34.1318 33.6775 29.6947 35.1985 23.6764L31.3205 22.6962ZM22.0552 31.3986C21.6512 31.4772 20.9103 31.5343 20.062 31.5355C19.2192 31.5368 18.4476 31.4827 17.9911 31.4004L17.2817 35.337C18.0754 35.48 19.1165 35.5369 20.0678 35.5355C21.0135 35.5342 22.048 35.4751 22.8196 35.3248L22.0552 31.3986ZM17.9913 31.4004C13.4174 30.5758 9.82261 27.2191 8.67953 22.6962L4.80147 23.6764C6.32799 29.7163 11.1584 34.233 17.2815 35.337L17.9913 31.4004ZM8.67951 22.6962C8.55333 22.197 8.44848 21.3245 8.41393 20.3444C8.37948 19.3669 8.42171 18.4744 8.51412 17.9421L4.57308 17.2579C4.41319 18.1788 4.37752 19.3818 4.41642 20.4853C4.45522 21.5863 4.57497 22.7803 4.80149 23.6764L8.67951 22.6962ZM8.51412 17.9421C9.35508 13.0985 13.2244 9.24855 18.0832 8.42755L17.4168 4.48345C10.889 5.58645 5.70472 10.7401 4.57308 17.2579L8.51412 17.9421ZM18.0832 8.42756C18.4657 8.36292 19.1624 8.31674 19.9478 8.31527C20.7316 8.3138 21.4363 8.35717 21.8327 8.42148L22.4733 4.47312C21.7635 4.35793 20.8098 4.31365 19.9403 4.31528C19.0722 4.31691 18.1205 4.36458 17.4168 4.48344L18.0832 8.42756ZM18.3117 5.15594C16.6787 5.73919 15.3653 7.07255 14.3647 8.67337L17.7567 10.7934C18.4993 9.60525 19.1937 9.08841 19.6571 8.92286L18.3117 5.15594ZM14.3646 8.67357C14.0304 9.20845 13.6622 9.95949 13.3711 10.6255C13.0982 11.2496 12.7885 12.0345 12.6758 12.5981L16.5982 13.3823C16.5966 13.3904 16.6024 13.3611 16.6262 13.2838C16.6484 13.2117 16.6796 13.1191 16.7205 13.0071C16.8025 12.7826 16.9115 12.5129 17.0361 12.2277C17.2943 11.6372 17.5723 11.0885 17.7568 10.7932L14.3646 8.67357ZM12.6759 12.5978C12.6758 12.5981 12.5951 12.9349 12.6205 13.3003C12.6604 13.8746 12.9247 14.4181 13.3903 14.8072C13.7128 15.0768 14.0575 15.202 14.1681 15.2428C14.3196 15.2988 14.4971 15.3534 14.6409 15.3978L15.8215 11.576C15.646 11.5218 15.5823 11.501 15.5535 11.4904C15.4838 11.4647 15.709 11.532 15.9556 11.7382C16.1087 11.8661 16.2832 12.0564 16.4167 12.3209C16.5501 12.5851 16.5978 12.8348 16.6109 13.0231C16.6228 13.1947 16.6062 13.3222 16.6009 13.3604C16.5956 13.3989 16.5904 13.4214 16.5981 13.3826L12.6759 12.5978ZM14.6409 15.3978C15.8847 15.782 18.1685 16.1817 19.3471 16.1981L19.4029 12.1985C18.6737 12.1883 16.7719 11.8696 15.8215 11.576L14.6409 15.3978ZM19.3484 16.1981C20.1272 16.2085 20.6523 15.7903 20.9066 15.4956C21.136 15.2298 21.2417 14.9673 21.2834 14.8551C21.3725 14.6151 21.4044 14.3951 21.4172 14.3016C21.4485 14.0738 21.4632 13.7974 21.473 13.5135C21.4934 12.9181 21.5 11.9715 21.5 10.55H17.5C17.5 11.9828 17.493 12.861 17.4753 13.3765C17.471 13.5023 17.4664 13.5966 17.4618 13.6657C17.457 13.7387 17.4535 13.7641 17.4543 13.7587C17.4547 13.7552 17.4582 13.7298 17.4667 13.69C17.474 13.6557 17.4931 13.5715 17.5335 13.4629C17.565 13.3779 17.6602 13.1351 17.8784 12.8822C18.1215 12.6004 18.635 12.1883 19.4016 12.1985L19.3484 16.1981ZM21.5 10.55C21.5 9.53697 21.4915 8.61063 21.4775 7.93233C21.4706 7.59598 21.4621 7.30658 21.4518 7.09384C21.4469 6.99306 21.4402 6.87979 21.4301 6.77851C21.4261 6.73849 21.4158 6.63902 21.3927 6.52518C21.3846 6.48507 21.3536 6.3309 21.2786 6.14853C21.2459 6.06878 21.1516 5.84849 20.9566 5.617C20.7783 5.40531 20.2244 4.85444 19.3087 4.90778L19.5413 8.90102C18.6268 8.95429 18.0743 8.40414 17.8973 8.19397C17.7036 7.96401 17.6106 7.74602 17.579 7.66937C17.5066 7.49319 17.4782 7.34834 17.4726 7.32061C17.4619 7.26793 17.4563 7.22832 17.4542 7.21246C17.4517 7.19356 17.4504 7.18101 17.45 7.17753C17.4496 7.17334 17.4524 7.20353 17.4564 7.28758C17.4641 7.44449 17.4717 7.69023 17.4784 8.01464C17.4916 8.65787 17.5 9.55553 17.5 10.55H21.5ZM19.3087 4.90778C19.1506 4.91699 19.0249 4.94368 18.9952 4.94986C18.9422 4.96087 18.8962 4.97232 18.8641 4.98066C18.7987 4.99766 18.734 5.01666 18.6789 5.03354C18.566 5.06812 18.4368 5.1112 18.3111 5.15615L19.6577 8.92265C19.7331 8.8957 19.8036 8.87248 19.8504 8.85814C19.8752 8.85055 19.8804 8.84943 19.87 8.85213C19.8654 8.85332 19.8432 8.85907 19.8098 8.86602C19.7927 8.86958 19.7639 8.87528 19.7272 8.88109C19.7083 8.88406 19.6838 8.88763 19.6549 8.89104C19.6267 8.89436 19.5878 8.8983 19.5413 8.90102L19.3087 4.90778ZM18.1 10.5433V13.386H22.1V10.5433H18.1ZM21.0875 16.1399C22.3191 16.0395 23.9545 15.7255 25.1481 15.3614L23.9811 11.5354C23.0575 11.8171 21.7043 12.0763 20.7625 12.1531L21.0875 16.1399ZM25.1482 15.3614C25.2475 15.3311 25.6543 15.2199 25.9163 15.1073C26.2898 14.9469 27.1185 14.485 27.312 13.3999C27.4352 12.7092 27.198 12.0839 27.1401 11.9173C27.0457 11.6459 26.8937 11.271 26.7513 10.9063L23.0251 12.3605C23.2064 12.8251 23.3003 13.0537 23.3618 13.2306C23.3896 13.3104 23.3832 13.3041 23.3724 13.2506C23.3634 13.2055 23.3218 12.9914 23.3741 12.6977C23.4368 12.3464 23.6096 12.0126 23.8701 11.7552C24.0879 11.54 24.2957 11.45 24.3375 11.4321C24.3841 11.4121 24.3981 11.4108 24.3115 11.437C24.2741 11.4483 24.2332 11.4603 24.1745 11.4776C24.1192 11.4939 24.0531 11.5134 23.981 11.5354L25.1482 15.3614ZM26.7513 10.9062C26.1746 9.4286 25.3543 8.08743 24.4026 7.05449C23.492 6.06622 22.2632 5.15061 20.8315 4.95442L20.2885 8.91738C20.4039 8.9332 20.8425 9.09373 21.4609 9.76491C22.0381 10.3914 22.6084 11.293 23.0251 12.3606L26.7513 10.9062ZM18.1 7.33711V10.5433H22.1V7.33711H18.1ZM15.7599 5.47832C13.3507 6.22224 11.4844 7.28398 9.69015 8.95404L12.4155 11.882C13.7482 10.6414 15.0795 9.87476 16.9401 9.30028L15.7599 5.47832ZM9.92837 13.0629L9.97007 13.0935L12.3387 9.87027L12.297 9.83963L9.92837 13.0629ZM9.97034 13.0937C10.4082 13.4154 11.1267 13.8448 11.7103 14.1704C12.0137 14.3397 12.3189 14.5024 12.5757 14.628C12.701 14.6893 12.8401 14.7543 12.9741 14.8085C13.0395 14.835 13.1314 14.8703 13.2358 14.902C13.2893 14.9183 13.548 15 13.8749 15V11C14.0529 11 14.1888 11.0249 14.2481 11.037C14.318 11.0511 14.3706 11.0662 14.3982 11.0746C14.4281 11.0837 14.4494 11.0913 14.4596 11.095C14.4652 11.097 14.4694 11.0986 14.4719 11.0996C14.4744 11.1005 14.4757 11.1011 14.4757 11.1011C14.4757 11.1011 14.4747 11.1007 14.4727 11.0998C14.4707 11.099 14.4679 11.0978 14.4642 11.0962C14.4567 11.0929 14.4466 11.0884 14.4337 11.0825C14.4076 11.0706 14.3743 11.0549 14.3334 11.0349C14.1641 10.9521 13.9269 10.8267 13.6595 10.6775C13.1015 10.3661 12.5649 10.0364 12.3385 9.87007L9.97034 13.0937ZM13.8749 15C14.4783 15 14.8928 14.7335 15.0423 14.6276C15.2229 14.4998 15.3444 14.3692 15.4047 14.3005C15.5288 14.1591 15.6118 14.0262 15.6499 13.9634C15.7362 13.8208 15.8074 13.6737 15.8581 13.5631C15.9667 13.3259 16.0809 13.0357 16.1839 12.7407L12.4075 11.4221C12.3341 11.6323 12.2654 11.8014 12.2215 11.8972C12.1959 11.9531 12.1984 11.9409 12.2282 11.8916C12.238 11.8755 12.2958 11.7788 12.3984 11.662C12.4479 11.6056 12.5595 11.4844 12.7312 11.3628C12.8718 11.2633 13.2783 11 13.8749 11V15ZM16.1839 12.7407C16.7442 11.136 17.4776 9.93882 18.2768 9.13595L15.4418 6.31405C14.1202 7.64178 13.1124 9.4034 12.4075 11.4221L16.1839 12.7407ZM18.2766 9.13612C18.4737 8.93816 18.6652 8.73206 18.813 8.55134C18.8706 8.48084 18.9931 8.32874 19.0979 8.14531C19.1105 8.12333 19.3191 7.78657 19.3662 7.31737C19.3915 7.06598 19.4081 6.38296 18.8658 5.77592C18.2971 5.13936 17.5748 5.09316 17.2685 5.10806L17.4629 9.10334C17.1646 9.11785 16.4479 9.07346 15.8828 8.44081C15.344 7.83768 15.3618 7.16067 15.3863 6.91728C15.4139 6.64296 15.493 6.44194 15.5248 6.36545C15.5646 6.26953 15.6036 6.1982 15.6252 6.16034C15.6945 6.03904 15.7506 5.97751 15.7164 6.01926C15.6806 6.06304 15.5871 6.16814 15.442 6.31388L18.2766 9.13612ZM17.2683 5.10807C17.0825 5.11713 16.9243 5.15285 16.9151 5.15476C16.8612 5.16603 16.8094 5.17844 16.7676 5.1888C16.6818 5.21012 16.5828 5.23681 16.4818 5.265C16.277 5.32217 16.0212 5.39762 15.7597 5.47839L16.9403 9.30021C17.1738 9.22808 17.394 9.16328 17.5574 9.11766C17.6406 9.09444 17.6987 9.0791 17.7319 9.07083C17.7497 9.06641 17.7479 9.06715 17.7331 9.07025C17.7258 9.07176 17.704 9.07625 17.673 9.08134C17.6548 9.08432 17.5726 9.09799 17.4631 9.10333L17.2683 5.10807ZM21.7156 9.12837C22.5081 9.92446 23.2576 11.1449 23.7644 12.6056L27.5434 11.2944C26.8796 9.38126 25.8459 7.60774 24.5506 6.30643L21.7156 9.12837ZM23.7645 12.6057C23.8489 12.8492 23.9376 13.0882 24.0152 13.2825C24.0531 13.3775 24.0949 13.4781 24.1367 13.5697C24.1568 13.614 24.1857 13.6755 24.2208 13.7415C24.2287 13.7564 24.3294 13.9562 24.5038 14.1554L27.513 11.52C27.5696 11.5847 27.6111 11.6407 27.6366 11.6767C27.6634 11.7146 27.6842 11.7469 27.6984 11.7699C27.7261 11.8145 27.745 11.8493 27.7538 11.8659C27.7714 11.8992 27.7797 11.9181 27.7766 11.9113C27.7718 11.9006 27.7562 11.8649 27.7299 11.799C27.679 11.6715 27.6116 11.4908 27.5434 11.2943L23.7645 12.6057ZM24.5051 14.1568C25.1311 14.8702 25.9518 14.8537 26.0957 14.8509C26.3564 14.8456 26.5671 14.7933 26.6681 14.7658C26.8909 14.7052 27.0981 14.618 27.2425 14.553C27.555 14.4123 27.9163 14.2184 28.261 14.0187C28.9289 13.6317 29.7746 13.0837 30.3159 12.6107L27.6841 9.59846C27.4346 9.81642 26.8522 10.2121 26.2559 10.5575C25.9685 10.724 25.7385 10.8434 25.601 10.9053C25.5204 10.9416 25.5379 10.9279 25.6186 10.9059C25.6487 10.8978 25.8004 10.856 26.0155 10.8517C26.1264 10.8494 26.3284 10.855 26.5721 10.9241C26.8215 10.9948 27.1936 11.156 27.5117 11.5186L24.5051 14.1568ZM30.3667 9.01491L30.1079 8.77558L27.3921 11.7122L27.6508 11.9516L30.3667 9.01491ZM30.1079 8.77558C28.3363 7.13713 25.5977 5.70748 23.2493 5.19985L22.4042 9.10955C24.0473 9.46472 26.1413 10.5555 27.3921 11.7122L30.1079 8.77558ZM23.2489 5.19977C23.2123 5.19187 23.1377 5.17571 23.0597 5.16245C23.0111 5.15419 22.8101 5.11857 22.5664 5.12948C22.5165 5.13171 21.3704 5.14623 20.8257 6.26554C20.5659 6.79937 20.608 7.29431 20.666 7.56934C20.7229 7.83925 20.8225 8.03831 20.876 8.1365C21.0428 8.44287 21.2884 8.69102 21.3281 8.73302C21.4323 8.84346 21.5685 8.98052 21.7157 9.12838L24.5505 6.30642C24.3916 6.14673 24.2971 6.05119 24.2373 5.98785C24.113 5.85607 24.2613 5.98926 24.3888 6.22335C24.4324 6.30347 24.5258 6.48713 24.58 6.74406C24.6352 7.0061 24.6781 7.49047 24.4224 8.0159C24.1539 8.56752 23.7095 8.85334 23.3886 8.98385C23.098 9.10207 22.8512 9.12074 22.7453 9.12548C22.6229 9.13096 22.5288 9.12301 22.4853 9.11864C22.4368 9.11375 22.402 9.10803 22.3892 9.10586C22.3686 9.10235 22.3625 9.10055 22.4045 9.10963L23.2489 5.19977ZM28.2553 9.94465C27.7261 10.3653 26.7564 10.9839 26.1259 11.3009L27.9225 14.8747C28.7918 14.4377 29.9943 13.6721 30.7443 13.0759L28.2553 9.94465ZM26.1255 11.3011C25.8485 11.4404 25.5742 11.595 25.3475 11.7432C25.2412 11.8128 25.099 11.9109 24.9623 12.0282C24.899 12.0825 24.7812 12.188 24.6619 12.3355C24.6018 12.4098 24.5067 12.5369 24.4193 12.7099C24.3397 12.8674 24.2 13.1919 24.2 13.6268H28.2C28.2 14.0532 28.0632 14.3678 27.9893 14.514C27.9075 14.6758 27.8208 14.7905 27.7718 14.8512C27.6745 14.9714 27.5892 15.0449 27.5678 15.0633C27.5148 15.1088 27.4937 15.1191 27.5367 15.091C27.6088 15.0438 27.7466 14.9632 27.9229 14.8745L26.1255 11.3011ZM24.2 13.6268C24.2 13.9081 24.263 14.1833 24.2752 14.2398C24.3041 14.3736 24.3416 14.5215 24.383 14.6629L28.2217 13.5385C28.2148 13.5149 28.2076 13.4885 28.2009 13.4619C28.194 13.4351 28.1887 13.412 28.185 13.3949C28.1832 13.3865 28.1821 13.3812 28.1817 13.3789C28.1812 13.3763 28.1818 13.3795 28.1831 13.3878C28.1843 13.3949 28.1874 13.4153 28.1907 13.4454C28.1923 13.4609 28.1945 13.4832 28.1963 13.5107C28.198 13.5372 28.2 13.5773 28.2 13.6268H24.2ZM24.3831 14.663C24.5346 15.1802 24.8271 17.1739 24.8868 18.3512L28.8816 18.1488C28.8149 16.8303 28.499 14.4848 28.2217 13.5384L24.3831 14.663ZM28.2344 21.5611L30.0064 21.5763L30.0408 17.5765L28.2688 17.5613L28.2344 21.5611ZM30.0064 21.5763L32.4507 21.5974L32.4852 17.5976L30.0408 17.5765L30.0064 21.5763ZM35.0298 18.7896C34.8592 16.9713 34.2468 14.7089 33.4819 13.1923L29.9105 14.9935C30.4218 16.0073 30.917 17.7749 31.0472 19.1632L35.0298 18.7896ZM33.4819 13.1922C33.247 12.7264 32.8405 12.0757 32.485 11.5436C32.3 11.2668 32.11 10.9939 31.9383 10.7623C31.8019 10.5782 31.5783 10.2831 31.3492 10.0691L28.6192 12.9927C28.5441 12.9225 28.567 12.9312 28.7247 13.1441C28.8473 13.3094 28.9991 13.5265 29.1591 13.766C29.4935 14.2663 29.789 14.7528 29.9105 14.9936L33.4819 13.1922ZM8.15044 10.6371C7.6557 11.2649 6.84812 12.5347 6.48766 13.2511L10.0609 15.0489C10.3013 14.5711 10.9645 13.5287 11.2922 13.1129L8.15044 10.6371ZM6.48775 13.251C5.74937 14.7183 5.13715 17.01 4.97024 18.7896L8.95276 19.1632C9.08065 17.7996 9.58003 16.0045 10.0608 15.049L6.48775 13.251ZM7.54926 21.5974L9.99364 21.5763L9.95916 17.5765L7.51478 17.5976L7.54926 21.5974ZM9.99358 21.5763L11.8157 21.5607L11.7814 17.5608L9.95922 17.5765L9.99358 21.5763ZM15.1092 18.3985C15.1695 17.1759 15.3931 15.5764 15.6012 14.7555L11.724 13.7723C11.4343 14.9144 11.1837 16.7885 11.114 18.2015L15.1092 18.3985ZM15.6013 14.7553C15.6487 14.5684 15.6915 14.3813 15.7219 14.2244C15.736 14.1521 15.7541 14.0521 15.7665 13.949C15.7716 13.9066 15.7837 13.8012 15.7837 13.6729C15.7837 13.6169 15.7823 13.4727 15.749 13.294C15.7323 13.2045 15.6961 13.0418 15.6125 12.8519C15.5366 12.6794 15.3529 12.3257 14.9558 12.0374L12.6054 15.274C12.2094 14.9864 12.0266 14.634 11.9514 14.4633C11.8686 14.2752 11.8331 14.1147 11.8169 14.028C11.7846 13.8548 11.7837 13.718 11.7837 13.6713C11.7837 13.5616 11.7938 13.4821 11.795 13.4721C11.7996 13.4339 11.8025 13.4247 11.7951 13.4626C11.7828 13.5262 11.7582 13.6371 11.7239 13.7725L15.6013 14.7553ZM14.9621 12.042C14.9025 11.9983 14.8534 11.9676 14.8377 11.9579C14.8154 11.944 14.7971 11.9331 14.7862 11.9268C14.7645 11.9141 14.7464 11.9041 14.7371 11.899C14.7173 11.888 14.699 11.8783 14.6871 11.872C14.6614 11.8585 14.6313 11.8429 14.6009 11.8273C14.5385 11.7952 14.4542 11.7523 14.3556 11.7025C14.1575 11.6023 13.8905 11.4683 13.6019 11.3243L11.8161 14.9035C12.1001 15.0452 12.3605 15.176 12.5508 15.2722C12.6465 15.3205 12.7216 15.3588 12.7723 15.3848C12.7984 15.3982 12.8132 15.4059 12.8194 15.4092C12.8234 15.4113 12.8177 15.4084 12.807 15.4025C12.8024 15.3999 12.788 15.392 12.7691 15.3809C12.7597 15.3754 12.7425 15.3653 12.7212 15.352C12.7066 15.3429 12.6582 15.3127 12.5991 15.2694L14.9621 12.042ZM13.6023 11.3245C13.0996 11.0736 12.3681 10.6427 12.035 10.4093L9.73938 13.6849C10.2653 14.0535 11.1734 14.5827 11.8157 14.9033L13.6023 11.3245ZM12.0349 10.4092C11.8101 10.2516 11.5951 10.1046 11.4274 9.99355C11.3458 9.93945 11.263 9.88565 11.1911 9.84127C11.1584 9.82105 11.106 9.78918 11.0475 9.75715C11.0215 9.74291 10.9632 9.71143 10.889 9.6781C10.8531 9.66202 10.7826 9.63145 10.6913 9.60133C10.6463 9.58651 10.3948 9.5 10.0616 9.5V13.5C9.96056 13.5 9.87466 13.4923 9.80947 13.484C9.74325 13.4756 9.68643 13.4649 9.64148 13.4553C9.55388 13.4364 9.48375 13.415 9.43855 13.4001C9.3501 13.3709 9.28313 13.3418 9.25148 13.3276C9.18557 13.298 9.13823 13.2721 9.12561 13.2652C9.09386 13.2478 9.07789 13.2375 9.09015 13.2451C9.10826 13.2563 9.14985 13.2828 9.21784 13.3279C9.34947 13.4151 9.53495 13.5417 9.73946 13.685L12.0349 10.4092ZM10.0616 9.5C9.57236 9.5 9.22196 9.68182 9.14404 9.72171C9.01175 9.78945 8.91437 9.85789 8.86582 9.89341C8.76479 9.9673 8.68911 10.0368 8.6546 10.069C8.5765 10.1421 8.50822 10.2153 8.46211 10.2661C8.36219 10.3762 8.25304 10.5069 8.15046 10.6371L11.2921 13.1129C11.3521 13.0369 11.4008 12.9801 11.4242 12.9542C11.4398 12.9371 11.4246 12.9552 11.3872 12.9902C11.373 13.0034 11.3146 13.058 11.2273 13.1219C11.1857 13.1524 11.0942 13.217 10.967 13.2822C10.9016 13.3157 10.7998 13.3633 10.6693 13.4051C10.5463 13.4445 10.333 13.5 10.0616 13.5V9.5ZM23.9819 12.1592C23.6619 12.2632 23.0611 12.4039 22.4112 12.5216C21.7345 12.6441 21.2272 12.701 21.0598 12.7014L21.0704 16.7014C21.6238 16.6999 22.437 16.582 23.124 16.4576C23.8379 16.3283 24.6441 16.1499 25.2181 15.9634L23.9819 12.1592ZM21.0602 12.7014C20.8613 12.7019 20.6534 12.7116 20.4692 12.727C20.3319 12.7384 20.0594 12.7638 19.8084 12.8309L20.8416 16.6951C20.7885 16.7093 20.7513 16.7163 20.7402 16.7183C20.726 16.7209 20.7201 16.7216 20.7246 16.721C20.7342 16.7197 20.7599 16.7166 20.8013 16.7131C20.8854 16.7061 20.9856 16.7016 21.07 16.7014L21.0602 12.7014ZM18.1 15.0562V17.2117H22.1V15.0562H18.1ZM22.4883 21.6H23.2618V17.6H22.4883V21.6ZM23.2618 21.6H25.5462V17.6H23.2618V21.6ZM28.3525 18.5757C28.2556 17.2809 28.0973 15.9989 27.9247 15.0152C27.8399 14.5319 27.7431 14.0705 27.6348 13.7004C27.5841 13.5273 27.5074 13.2906 27.3934 13.0612C27.3392 12.9521 27.2334 12.7552 27.0583 12.5539C26.9189 12.3937 26.4797 11.9317 25.7227 11.8468L25.2773 15.822C24.5521 15.7407 24.146 15.3006 24.0407 15.1796C23.8998 15.0177 23.8292 14.8773 23.8111 14.8409C23.7694 14.7569 23.7685 14.7305 23.7957 14.8235C23.8432 14.9858 23.9102 15.2805 23.9849 15.7064C24.1314 16.5411 24.275 17.6902 24.3637 18.8743L28.3525 18.5757ZM25.7217 11.8467C25.4829 11.8201 25.287 11.8424 25.2361 11.848C25.1504 11.8574 25.0741 11.8702 25.0184 11.8806C24.905 11.9016 24.7888 11.9286 24.6848 11.9548C24.4724 12.0084 24.2247 12.0803 23.9821 12.1591L25.2179 15.9635C25.3878 15.9083 25.5488 15.8622 25.6627 15.8335C25.6899 15.8266 25.7115 15.8215 25.7274 15.8179C25.744 15.8141 25.7499 15.8131 25.7467 15.8137C25.7448 15.8141 25.7381 15.8153 25.7273 15.8169C25.7171 15.8185 25.6983 15.8213 25.673 15.824C25.6494 15.8266 25.6075 15.8307 25.5532 15.8326C25.5253 15.8337 25.4889 15.8343 25.446 15.8333C25.404 15.8324 25.3466 15.8297 25.2783 15.8221L25.7217 11.8467ZM12.1544 14.5897C11.908 15.8447 11.7616 17.0064 11.6511 18.5304L15.6407 18.8196C15.742 17.421 15.8706 16.4241 16.0794 15.3603L12.1544 14.5897ZM14.5062 21.6H16.5394V17.6H14.5062V21.6ZM16.5394 21.6H17.1107V17.6H16.5394V21.6ZM21.5 17.2107C21.5 16.5656 21.5042 16.0264 21.4952 15.634C21.4878 15.3129 21.4743 14.7815 21.3127 14.3031C21.214 14.0109 21.0254 13.6232 20.6526 13.2905C20.2728 12.9516 19.8611 12.8117 19.5622 12.7518C19.2963 12.6985 19.0577 12.6973 18.9529 12.6972C18.8907 12.6971 18.8267 12.6981 18.7826 12.6988C18.7328 12.6995 18.6927 12.7 18.6518 12.7V16.7C18.7249 16.7 18.7911 16.6991 18.8407 16.6983C18.8958 16.6975 18.9239 16.6971 18.9473 16.6972C19.0135 16.6973 18.9195 16.7025 18.7759 16.6737C18.5992 16.6383 18.2875 16.5411 17.9892 16.2749C17.698 16.015 17.5727 15.7303 17.5231 15.5833C17.4788 15.4523 17.4768 15.3779 17.4824 15.4328C17.4869 15.4771 17.4926 15.5648 17.4962 15.7254C17.5038 16.0569 17.5 16.5063 17.5 17.2107H21.5ZM18.6518 12.7C18.4959 12.7 17.9916 12.646 17.3182 12.5303C16.6696 12.4188 16.0848 12.2884 15.7995 12.1988L14.6005 16.0148C15.1468 16.1865 15.9435 16.3527 16.6407 16.4725C17.3131 16.588 18.119 16.7 18.6518 16.7V12.7ZM15.7994 12.1987C15.5991 12.1358 15.3978 12.0768 15.2298 12.0314C15.1474 12.0091 15.0594 11.9865 14.9769 11.9677C14.9367 11.9586 14.8826 11.9469 14.8231 11.9363C14.7966 11.9316 14.6459 11.9035 14.4619 11.9014L14.4161 15.9012C14.3602 15.9005 14.3145 15.8976 14.2837 15.8951C14.2517 15.8925 14.2251 15.8895 14.2058 15.8871C14.1683 15.8824 14.1401 15.8776 14.126 15.8751C14.0983 15.8702 14.0839 15.8667 14.0899 15.8681C14.1 15.8704 14.1314 15.878 14.1869 15.893C14.2947 15.9221 14.4434 15.9655 14.6006 16.0149L15.7994 12.1987ZM14.4617 11.9014C13.8034 11.8939 13.3547 12.2015 13.1695 12.351C12.9675 12.5143 12.8411 12.6809 12.781 12.7656C12.6569 12.9405 12.5826 13.1025 12.5506 13.1746C12.4766 13.3418 12.4211 13.5128 12.3832 13.6394C12.3012 13.9126 12.2215 14.2476 12.1544 14.5896L16.0794 15.3604C16.1295 15.1056 16.1801 14.9034 16.2144 14.7888C16.2346 14.7215 16.2339 14.7359 16.2077 14.7951C16.1997 14.8132 16.1475 14.9333 16.0436 15.0799C15.9935 15.1504 15.8766 15.3063 15.6835 15.4623C15.5073 15.6047 15.0669 15.9086 14.4163 15.9012L14.4617 11.9014ZM5.26248 19.2266C5.01692 19.6256 4.97719 20.0169 4.97343 20.0445C4.95688 20.1661 4.95251 20.2718 4.95091 20.3365C4.94755 20.472 4.95283 20.6097 4.95912 20.7228C4.97223 20.9585 4.99881 21.2403 5.03075 21.5198C5.09285 22.0632 5.19228 22.7455 5.30228 23.2199L9.19892 22.3165C9.14023 22.0633 9.0611 21.5576 9.00488 21.0657C8.97766 20.8275 8.96012 20.6297 8.95295 20.5007C8.94909 20.4314 8.95018 20.4153 8.94968 20.4355C8.94951 20.4424 8.94833 20.5 8.93687 20.5841C8.93109 20.6265 8.91871 20.7062 8.89209 20.806C8.87065 20.8864 8.81168 21.0914 8.66892 21.3234L5.26248 19.2266ZM5.30231 23.22C5.74102 25.1117 6.69031 27.2271 7.79752 28.7228L11.0125 26.3428C10.2563 25.3213 9.52378 23.7173 9.19889 22.3164L5.30231 23.22ZM7.79746 28.7227L7.96043 28.9429L11.1755 26.5631L11.0125 26.3429L7.79746 28.7227ZM11.6233 29.3977C12.0683 29.033 13.2861 28.2714 13.9404 27.962L12.2302 24.346C11.3207 24.7762 9.81774 25.7058 9.08786 26.3039L11.6233 29.3977ZM13.9408 27.9618C14.0823 27.8948 14.2367 27.8201 14.3771 27.7427C14.5012 27.6743 14.7275 27.5439 14.9463 27.3431C15.1995 27.1106 15.4987 26.7319 15.6176 26.1853C15.7241 25.6958 15.6319 25.2951 15.5941 25.1444L11.7145 26.1186C11.7015 26.0668 11.6191 25.7486 11.709 25.3352C11.8113 24.8646 12.0678 24.5557 12.2409 24.3967C12.3796 24.2694 12.4885 24.2163 12.4469 24.2393C12.4216 24.2532 12.3619 24.2837 12.2298 24.3462L13.9408 27.9618ZM15.5941 25.1446C15.4322 24.4996 15.181 22.6798 15.1396 21.7631L11.1436 21.9435C11.1944 23.068 11.4742 25.161 11.7145 26.1184L15.5941 25.1446ZM15.1396 21.763C15.124 21.418 15.1044 21.0753 15.085 20.7979C15.0712 20.6001 15.0467 20.2491 15.0018 20.0276L11.0816 20.8224C11.068 20.7553 11.0638 20.7128 11.0662 20.7332C11.0671 20.7402 11.0692 20.7592 11.0723 20.793C11.0786 20.86 11.0863 20.9559 11.0947 21.0769C11.1115 21.3173 11.1293 21.6268 11.1436 21.9436L15.1396 21.763ZM12.7666 18.2H10.004V22.2H12.7666V18.2ZM10.004 18.2C9.1697 18.2 8.39933 18.2085 7.82782 18.2227C7.54502 18.2296 7.29537 18.2384 7.10602 18.2491C7.01645 18.2542 6.91038 18.2614 6.81119 18.2726C6.76881 18.2774 6.67661 18.2884 6.56988 18.3111C6.52288 18.3211 6.40684 18.3469 6.26729 18.3994C6.19812 18.4255 6.07074 18.4774 5.92438 18.5669C5.80522 18.6397 5.49974 18.8403 5.26139 19.2284L8.67001 21.3216C8.43245 21.7084 8.12841 21.9077 8.01135 21.9793C7.86708 22.0675 7.74244 22.1181 7.67665 22.1429C7.54386 22.1929 7.43713 22.2161 7.40194 22.2236C7.35409 22.2338 7.3175 22.2395 7.29998 22.2421C7.28038 22.245 7.26657 22.2466 7.26084 22.2473C7.2477 22.2488 7.26545 22.2465 7.33334 22.2427C7.45891 22.2355 7.65868 22.2281 7.92658 22.2214C8.45647 22.2084 9.1926 22.2 10.004 22.2V18.2ZM11.6 20.3855C11.6 21.1091 11.7442 22.4717 11.8905 23.5794C11.9664 24.1551 12.0502 24.7164 12.1293 25.1571C12.1681 25.373 12.2109 25.5896 12.2568 25.7745C12.2787 25.863 12.3109 25.9835 12.3549 26.1082C12.3766 26.1696 12.4132 26.2667 12.4678 26.3769C12.5045 26.451 12.6303 26.7029 12.8807 26.9471L15.6735 24.0835C15.913 24.3171 16.0273 24.5513 16.0519 24.6009C16.0944 24.6866 16.1183 24.7525 16.1267 24.7764C16.1442 24.8262 16.1477 24.8462 16.1393 24.812C16.1243 24.7516 16.0993 24.6336 16.0664 24.4504C16.0022 24.0929 15.9276 23.5979 15.8561 23.056C15.7073 21.9286 15.6 20.8112 15.6 20.3855H11.6ZM12.8809 26.9473C13.2252 27.283 13.5942 27.4028 13.7396 27.4443C13.9167 27.4949 14.0653 27.5114 14.1487 27.5181C14.3172 27.5316 14.4583 27.5228 14.5303 27.5171C14.6885 27.5046 14.8409 27.4787 14.9552 27.4568C15.1985 27.4101 15.4819 27.3394 15.7606 27.258L14.6394 23.4184C14.4506 23.4735 14.2926 23.5109 14.2014 23.5284C14.1483 23.5386 14.1602 23.5339 14.2147 23.5296C14.2348 23.528 14.3332 23.52 14.4695 23.531C14.5367 23.5364 14.6719 23.5506 14.8383 23.5982C14.9729 23.6366 15.334 23.7525 15.6733 24.0833L12.8809 26.9473ZM15.7606 27.258C16.2074 27.1276 16.8653 26.9832 17.5175 26.871C18.2009 26.7534 18.713 26.7 18.9099 26.7V22.7C18.3478 22.7 17.5492 22.8068 16.8394 22.9289C16.0986 23.0563 15.281 23.231 14.6394 23.4184L15.7606 27.258ZM21.5 24.1099V22.45H17.5V24.1099H21.5ZM17.25 18.2H16.55V22.2H17.25V18.2ZM16.55 18.2C15.1868 18.2 14.3641 18.2011 13.8971 18.2305C13.7477 18.2399 13.2853 18.2613 12.849 18.4567C12.5541 18.5887 12.1377 18.8559 11.8586 19.3642C11.6025 19.8306 11.6 20.263 11.6 20.3855H15.6C15.6 20.4638 15.602 20.8574 15.3648 21.2895C15.1045 21.7635 14.7212 22.0011 14.4836 22.1074C14.2774 22.1998 14.1184 22.2227 14.1063 22.2246C14.0761 22.2294 14.0812 22.2268 14.1481 22.2226C14.4546 22.2034 15.1069 22.2 16.55 22.2V18.2ZM18.1232 22.4492L18.1367 23.5578L22.1364 23.5094L22.123 22.4008L18.1232 22.4492ZM21.1395 26.7158C22.132 26.7779 23.9001 27.1373 24.514 27.3701L25.9322 23.6299C24.8589 23.2229 22.68 22.8043 21.3891 22.7236L21.1395 26.7158ZM24.5141 27.3701L24.6332 27.4153L26.0512 23.675L25.9321 23.6299L24.5141 27.3701ZM27.7244 25.8534C27.8474 25.4137 27.983 24.5291 28.0869 23.7583C28.1984 22.9318 28.3044 21.9959 28.3458 21.3537L24.354 21.0963C24.3214 21.6019 24.2296 22.4318 24.1228 23.2237C24.0702 23.6141 24.0161 23.9791 23.9671 24.2733C23.9426 24.4206 23.9205 24.5431 23.9017 24.6381C23.8811 24.7425 23.8708 24.7812 23.8722 24.776L27.7244 25.8534ZM25.3889 18.2H23.2561V22.2H25.3889V18.2ZM23.2561 18.2H22.3214V22.2H23.2561V18.2ZM24.9987 20.0255C24.9536 20.2474 24.9291 20.5985 24.9152 20.797C24.8957 21.0748 24.876 21.4178 24.8604 21.763L28.8564 21.9436C28.8707 21.627 28.8885 21.3174 28.9054 21.0769C28.9139 20.9558 28.9216 20.8598 28.9279 20.7928C28.931 20.7589 28.9331 20.7399 28.934 20.7329C28.9364 20.7125 28.9323 20.7547 28.9187 20.8215L24.9987 20.0255ZM24.8604 21.763C24.8187 22.6869 24.5677 24.4997 24.4021 25.1598L28.2817 26.1336C28.5253 25.1633 28.8051 23.0777 28.8564 21.9436L24.8604 21.763ZM24.402 25.16C24.3716 25.2811 24.2571 25.7285 24.391 26.2696C24.5378 26.8626 24.8903 27.2378 25.1236 27.4371C25.4592 27.7238 25.9408 27.9556 26.2173 28.0946L28.0139 24.5208C27.8225 24.4246 27.7103 24.3665 27.6392 24.3268C27.5495 24.2769 27.6161 24.3055 27.7217 24.3957C27.8498 24.5051 28.1481 24.8006 28.2739 25.3087C28.3868 25.765 28.2845 26.1225 28.2818 26.1334L24.402 25.16ZM26.2176 28.0948C26.9883 28.482 27.7409 28.9633 28.3252 29.4331L30.8316 26.3157C30.0075 25.6531 29.0129 25.0228 28.0136 24.5206L26.2176 28.0948ZM28.3249 29.4329C28.3736 29.472 28.6589 29.7154 28.9669 29.8738C29.1615 29.9739 29.472 30.1015 29.8701 30.1266C30.2958 30.1535 30.6833 30.055 31.005 29.893C31.5233 29.6321 31.8427 29.2106 31.9462 29.0774C32.0952 28.8854 32.2652 28.637 32.4245 28.406L29.1315 26.1352C28.9405 26.4122 28.8487 26.5444 28.7865 26.6246C28.7591 26.6598 28.7727 26.6385 28.8175 26.5942C28.8586 26.5536 28.989 26.4296 29.2064 26.3202C29.4537 26.1957 29.7698 26.1123 30.1223 26.1346C30.4472 26.1551 30.6827 26.2582 30.7959 26.3164C30.9025 26.3712 30.9626 26.419 30.9451 26.406C30.93 26.3947 30.9066 26.376 30.8319 26.3159L28.3249 29.4329ZM32.4245 28.4059C33.8923 26.2773 34.8912 23.4465 35.0172 20.9508L31.0222 20.7492C30.9362 22.4551 30.2061 24.5767 29.1315 26.1353L32.4245 28.4059ZM32.4668 18.2448L30.0448 18.2236L30.0098 22.2234L32.4317 22.2447L32.4668 18.2448ZM30.0448 18.2236L27.253 18.1992L27.218 22.199L30.0098 22.2234L30.0448 18.2236ZM18.6552 23.2729C17.2665 23.3737 15.2172 23.7989 14.0409 24.2571L15.4927 27.9843C16.232 27.6963 17.8785 27.3398 18.9448 27.2624L18.6552 23.2729ZM14.0408 24.2571C13.9773 24.2819 13.771 24.3605 13.5603 24.4913C13.3079 24.6479 12.9502 24.9379 12.7219 25.4338C12.5123 25.889 12.5141 26.3024 12.5251 26.502C12.5358 26.6975 12.5695 26.877 12.5843 26.9566L16.5167 26.2244C16.5009 26.1396 16.514 26.1909 16.5191 26.2832C16.5243 26.3797 16.5355 26.7151 16.3553 27.1066C16.1563 27.5387 15.8479 27.7792 15.67 27.8896C15.5337 27.9743 15.4268 28.01 15.4928 27.9843L14.0408 24.2571ZM12.5843 26.9567C12.6672 27.4019 12.897 28.0426 13.0906 28.5422C13.3052 29.0963 13.5722 29.7212 13.8161 30.205L17.3877 28.404C17.2219 28.0753 17.0071 27.5792 16.8205 27.0973C16.7288 26.8606 16.6504 26.6441 16.5925 26.4697C16.5264 26.2704 16.5123 26.2006 16.5167 26.2243L12.5843 26.9567ZM13.8161 30.205C14.6953 31.9487 16.0479 33.5947 17.6237 34.3821L19.4116 30.8039C18.8879 30.5423 18.0501 29.7177 17.3877 28.4041L13.8161 30.205ZM17.6236 34.3821C17.7555 34.448 17.7754 34.4623 17.9495 34.5524C18.0411 34.5998 18.3031 34.7378 18.6112 34.8197C18.9435 34.9079 19.688 35.0241 20.4208 34.5288C21.0654 34.0931 21.2706 33.4597 21.3392 33.2124C21.4772 32.7147 21.4903 32.0818 21.4975 31.5691C21.5058 30.9697 21.5 30.129 21.5 29.05H17.5C17.5 30.1778 17.5057 30.9506 17.4979 31.5132C17.494 31.7911 17.4871 31.9797 17.4778 32.1082C17.4671 32.2563 17.4586 32.2374 17.4846 32.1437C17.4975 32.097 17.6303 31.5868 18.1808 31.2148C18.8195 30.7831 19.4481 30.9033 19.6379 30.9537C19.8036 30.9977 19.8964 31.056 19.7873 30.9996C19.7608 30.9859 19.5484 30.8723 19.4116 30.8039L17.6236 34.3821ZM21.5 29.05C21.5 27.5444 21.4935 26.55 21.4732 25.9299C21.4636 25.6342 21.449 25.3512 21.4184 25.1214C21.4063 25.0306 21.3747 24.8024 21.2822 24.5546C21.2406 24.4433 21.1242 24.1507 20.8583 23.8643C20.5406 23.5221 19.9232 23.1215 19.0984 23.2367L19.6516 27.1983C18.8391 27.3118 18.2333 26.916 17.9268 26.5858C17.6721 26.3115 17.5663 26.0381 17.5349 25.954C17.4922 25.8396 17.4726 25.7511 17.4655 25.7173C17.4571 25.677 17.4537 25.6519 17.4534 25.6495C17.453 25.6466 17.4567 25.6753 17.4616 25.7533C17.4663 25.8271 17.471 25.9273 17.4754 26.0603C17.4931 26.6042 17.5 27.5329 17.5 29.05H21.5ZM19.0982 23.2367C19.1248 23.233 19.1313 23.2329 19.094 23.2366C19.0665 23.2393 19.0283 23.2428 18.9811 23.2469C18.8869 23.2551 18.7698 23.2645 18.6549 23.2729L18.9451 27.2623C19.1721 27.2458 19.5037 27.219 19.6518 27.1983L19.0982 23.2367ZM18.757 23.8479C18.4793 24.1256 18.3576 24.414 18.3256 24.4902C18.2764 24.6073 18.2485 24.705 18.2348 24.7565C18.2068 24.8619 18.1928 24.9487 18.187 24.9862C18.1741 25.0707 18.1672 25.147 18.1637 25.1904C18.1557 25.2873 18.1499 25.3997 18.1453 25.5096C18.1358 25.7367 18.1278 26.045 18.1212 26.4054C18.1081 27.1304 18.1 28.1121 18.1 29.1778H22.1C22.1 28.129 22.1079 27.1725 22.1206 26.4781C22.1269 26.1287 22.1343 25.857 22.1418 25.6766C22.1457 25.5828 22.1489 25.5345 22.1501 25.5194C22.1512 25.5067 22.149 25.539 22.1408 25.5924C22.1375 25.6143 22.1259 25.6888 22.1003 25.7851C22.0878 25.832 22.0611 25.926 22.0131 26.0402C21.9823 26.1135 21.8619 26.3998 21.5854 26.6763L18.757 23.8479ZM18.1 29.1778V32.6412H22.1V29.1778H18.1ZM20.8319 34.9222C23.1165 34.5079 24.9229 32.6098 26.0707 30.4146L22.5259 28.5613C21.6399 30.256 20.6545 30.8891 20.1181 30.9864L20.8319 34.9222ZM26.0707 30.4145C26.339 29.9012 26.6321 29.2321 26.8675 28.6363C27.0825 28.0922 27.3303 27.4089 27.4199 26.9316L23.4885 26.1938C23.4905 26.183 23.4714 26.2696 23.3991 26.4847C23.3348 26.676 23.2482 26.9111 23.1474 27.1663C22.9419 27.6863 22.7066 28.2158 22.5259 28.5613L26.0707 30.4145ZM25.76 24.1952L25.2661 24.0453L24.1039 27.8727L24.5979 28.0227L25.76 24.1952ZM25.266 24.0452C24.1874 23.7178 23.0311 23.4658 22.0774 23.3688L21.6726 27.3482C22.3073 27.4128 23.2042 27.5996 24.104 27.8728L25.266 24.0452ZM22.0776 23.3688C21.7618 23.3366 21.266 23.2859 20.9764 23.2561L20.566 27.2349C20.858 27.2651 21.3558 27.316 21.6724 27.3482L22.0776 23.3688ZM20.9764 23.2561C20.7608 23.2338 20.5322 23.2228 20.3215 23.2287C20.2218 23.2314 20.0779 23.2391 19.9206 23.2646C19.8444 23.2769 19.7155 23.3012 19.5656 23.351C19.4717 23.3822 19.1002 23.5055 18.7588 23.8461L21.5836 26.6781C21.3983 26.863 21.2162 26.9709 21.1074 27.0278C20.9916 27.0883 20.892 27.1253 20.827 27.1469C20.7005 27.1889 20.6014 27.2064 20.5606 27.213C20.5116 27.221 20.4763 27.2242 20.4605 27.2254C20.4431 27.2268 20.4332 27.2271 20.4322 27.2271C20.4312 27.2271 20.4453 27.2268 20.4734 27.2281C20.5004 27.2292 20.5323 27.2315 20.566 27.2349L20.9764 23.2561ZM12.3568 24.9441C11.8835 25.1642 11.1848 25.594 10.6359 25.9548C10.3439 26.1466 10.0539 26.3456 9.80908 26.5249C9.62416 26.6603 9.29596 26.9041 9.06633 27.1584L12.0353 29.839C11.964 29.918 11.9237 29.9448 11.9821 29.8973C12.0213 29.8653 12.0841 29.8168 12.1724 29.7521C12.348 29.6235 12.5795 29.4639 12.8326 29.2976C13.3738 28.9419 13.8594 28.6567 14.0432 28.5713L12.3568 24.9441ZM9.18201 30.3687L9.72416 30.8885L12.4924 28.0011L11.9503 27.4813L9.18201 30.3687ZM9.72417 30.8885C10.8388 31.9571 12.104 32.8104 13.5807 33.5137L15.3007 29.9023C14.1708 29.3642 13.2688 28.7455 12.4924 28.0011L9.72417 30.8885ZM13.5806 33.5136C14.1236 33.7723 14.8414 34.0485 15.4545 34.2573C15.7658 34.3633 16.0771 34.4611 16.3501 34.5352C16.5303 34.5841 16.9552 34.7 17.3538 34.7V30.7C17.5147 30.7 17.6086 30.7245 17.5555 30.7138C17.533 30.7093 17.4819 30.6977 17.3976 30.6748C17.2309 30.6296 17.0043 30.5595 16.7439 30.4708C16.2139 30.2903 15.6538 30.0705 15.3008 29.9024L13.5806 33.5136ZM17.3538 34.7C17.6248 34.7 18.1577 34.6425 18.6507 34.2282C19.1818 33.7819 19.3392 33.2015 19.3638 32.8158C19.4018 32.2211 19.1577 31.7828 19.1397 31.7475C19.021 31.5142 18.8732 31.3326 18.8172 31.2643C18.6611 31.0738 18.4624 30.8683 18.2649 30.6799L15.5039 33.5741C15.5656 33.633 15.6176 33.6853 15.658 33.7277C15.678 33.7488 15.6938 33.766 15.7055 33.7791C15.7176 33.7926 15.723 33.7992 15.7229 33.7991C15.7228 33.7989 15.7202 33.7958 15.7157 33.7899C15.7113 33.7843 15.7035 33.774 15.6933 33.7596C15.68 33.7409 15.6298 33.6697 15.575 33.5621C15.5474 33.5078 15.5002 33.4086 15.4584 33.2764C15.4227 33.1633 15.3502 32.902 15.372 32.5609C15.3961 32.1828 15.5509 31.6082 16.0774 31.1659C16.5657 30.7555 17.0918 30.7 17.3538 30.7V34.7ZM18.2648 30.6798C17.5097 29.9596 16.6981 28.6392 16.0842 26.8241L12.295 28.1057C13.0331 30.2876 14.1233 32.2572 15.504 33.5742L18.2648 30.6798ZM16.0842 26.8241C15.9866 26.5358 15.8867 26.2606 15.8011 26.0452C15.7605 25.943 15.7112 25.8239 15.6591 25.7149C15.6372 25.669 15.5886 25.569 15.5197 25.459C15.4905 25.4124 15.411 25.2876 15.2853 25.1511C15.2234 25.0839 15.0978 24.9556 14.9102 24.8321C14.744 24.7226 14.3397 24.4903 13.768 24.5014L13.8452 28.5006C13.2755 28.5116 12.8733 28.2802 12.7096 28.1724C12.5246 28.0504 12.4016 27.9246 12.3429 27.8607C12.2232 27.7308 12.1507 27.6157 12.1296 27.582C12.0989 27.5331 12.0784 27.4949 12.0692 27.4775C12.0588 27.4577 12.0521 27.4439 12.0496 27.4386C12.0442 27.4273 12.055 27.4497 12.0838 27.5223C12.1371 27.6563 12.2131 27.8633 12.295 28.1057L16.0842 26.8241ZM13.7745 24.5013C13.5419 24.505 13.3617 24.5503 13.3312 24.5577C13.2652 24.5735 13.212 24.5897 13.1822 24.5991C13.1207 24.6185 13.0675 24.6381 13.0349 24.6504C12.965 24.6768 12.8914 24.7071 12.8257 24.7349C12.6898 24.7924 12.5241 24.8663 12.3565 24.9443L14.0435 28.5711C14.1784 28.5084 14.3005 28.4542 14.3845 28.4187C14.4287 28.3999 14.4481 28.3925 14.4476 28.3927C14.4462 28.3932 14.4409 28.3952 14.4323 28.3982C14.4244 28.401 14.4081 28.4067 14.3858 28.4137C14.367 28.4196 14.3232 28.4332 14.2648 28.4472C14.235 28.4543 14.1878 28.4649 14.1289 28.4746C14.0987 28.4796 14.06 28.4853 14.0147 28.4901C13.9705 28.4947 13.9103 28.4996 13.8388 28.5007L13.7745 24.5013ZM23.9159 26.824C23.3206 28.5837 22.6192 29.7658 21.7707 30.6486L24.6545 33.4204C26.0132 32.0069 26.9752 30.2631 27.7049 28.1058L23.9159 26.824ZM21.7707 30.6485L21.3557 31.0803L24.2394 33.8523L24.6545 33.4205L21.7707 30.6485ZM23.2989 34.6124C25.6821 34.1274 28.4608 32.6286 30.2734 30.8908L27.5052 28.0034C26.2026 29.2522 24.0957 30.3682 22.5011 30.6928L23.2989 34.6124ZM30.2734 30.8908L30.7089 30.4733L27.9406 27.586L27.5052 28.0034L30.2734 30.8908ZM30.6061 26.9157C30.1469 26.5237 29.31 25.9696 28.6416 25.5558C28.2888 25.3374 27.9326 25.127 27.6339 24.965C27.488 24.8859 27.329 24.8036 27.178 24.7358C27.1042 24.7026 27.0024 24.6593 26.8874 24.6205C26.8301 24.6012 26.543 24.5 26.1788 24.5V28.5C25.981 28.5 25.831 28.4692 25.7678 28.4549C25.6924 28.4379 25.6367 28.42 25.6087 28.4106C25.554 28.3921 25.5262 28.3788 25.5383 28.3843C25.5591 28.3936 25.6195 28.4229 25.7269 28.4812C25.935 28.594 26.221 28.7618 26.5362 28.9569C27.2037 29.3701 27.8057 29.7845 28.0091 29.9581L30.6061 26.9157ZM26.1788 24.5C25.4506 24.5 24.9872 24.888 24.8893 24.9703C24.729 25.1051 24.6261 25.2351 24.5832 25.2913C24.4902 25.4131 24.4309 25.5202 24.411 25.5564C24.3613 25.6469 24.3243 25.7293 24.3066 25.7695C24.2648 25.8643 24.2224 25.9717 24.1848 26.07C24.1064 26.2753 24.0113 26.5419 23.9158 26.8241L27.705 28.1057C27.789 27.8572 27.8665 27.6413 27.9217 27.4968C27.9351 27.4616 27.9462 27.4335 27.9547 27.4123C27.9637 27.3898 27.9676 27.3811 27.9668 27.3828C27.9664 27.3839 27.9628 27.3921 27.9564 27.4053C27.9511 27.4166 27.9373 27.445 27.9164 27.483C27.9036 27.5063 27.8504 27.6036 27.7624 27.7187C27.7221 27.7716 27.6215 27.8991 27.4631 28.0322C27.3813 28.1011 27.2452 28.2044 27.0575 28.2964C26.8716 28.3874 26.5679 28.5 26.1788 28.5V24.5ZM27.4199 26.9315C27.6454 25.7295 26.9302 24.5505 25.76 24.1952L24.5979 28.0227C23.8158 27.7853 23.3378 26.9972 23.4885 26.1939L27.4199 26.9315ZM22.3214 18.2C19.9828 18.2 18.095 20.1108 18.1232 22.4492L22.123 22.4008C22.1216 22.2903 22.2108 22.2 22.3214 22.2V18.2ZM28.3458 21.3537C28.4559 19.6458 27.1003 18.2 25.3889 18.2V22.2C24.7899 22.2 24.3155 21.694 24.354 21.0963L28.3458 21.3537ZM30.7089 30.4733C31.7338 29.4906 31.6861 27.8376 30.6061 26.9157L28.0091 29.9581C27.289 29.3434 27.2572 28.2412 27.9406 27.586L30.7089 30.4733ZM24.6332 27.4153C25.9224 27.904 27.3531 27.1811 27.7244 25.8534L23.8722 24.776C24.134 23.8401 25.1425 23.3305 26.0512 23.675L24.6332 27.4153ZM21.3557 31.0803C19.9204 32.5734 21.2692 35.0253 23.2987 34.6125L22.5013 30.6927C24.3168 30.3234 25.5233 32.5167 24.2394 33.8523L21.3557 31.0803ZM18.1367 23.5578C18.1569 25.2341 19.4663 26.6111 21.1394 26.7158L21.3892 22.7236C21.8055 22.7496 22.1313 23.0923 22.1364 23.5094L18.1367 23.5578ZM21.5 22.45C21.5 20.1028 19.5972 18.2 17.25 18.2V22.2C17.3881 22.2 17.5 22.3119 17.5 22.45H21.5ZM7.96043 28.9429C8.82693 30.1135 10.4967 30.3209 11.6232 29.3978L9.08799 26.3038C9.73003 25.7777 10.6817 25.8959 11.1755 26.5631L7.96043 28.9429ZM20.8318 4.95446C19.3872 4.75629 18.1 5.87897 18.1 7.33711H22.1C22.1 8.30419 21.2463 9.04877 20.2882 8.91735L20.8318 4.95446ZM25.5462 21.6C27.1833 21.6 28.4749 20.208 28.3525 18.5755L24.3637 18.8745C24.3121 18.1866 24.8564 17.6 25.5462 17.6V21.6ZM24.8868 18.3511C24.9772 20.1385 26.4449 21.5457 28.2344 21.5611L28.2688 17.5613C28.5964 17.5641 28.8651 17.8217 28.8816 18.1489L24.8868 18.3511ZM15.002 20.0286C14.7869 18.9648 13.8519 18.2 12.7666 18.2V22.2C11.9484 22.2 11.2436 21.6234 11.0814 20.8214L15.002 20.0286ZM18.1 17.2117C18.1 19.6353 20.0647 21.6 22.4883 21.6V17.6C22.2738 17.6 22.1 17.4262 22.1 17.2117H18.1ZM19.8073 12.8312C18.8002 13.1011 18.1 14.0137 18.1 15.0562H22.1C22.1 15.824 21.5843 16.4961 20.8427 16.6948L19.8073 12.8312ZM11.8157 21.5607C13.5779 21.5455 15.0224 20.1586 15.1092 18.3984L11.114 18.2016C11.1316 17.8449 11.4243 17.5639 11.7814 17.5608L11.8157 21.5607ZM27.253 18.1992C26.1606 18.1897 25.215 18.9563 24.9984 20.0269L28.919 20.8201C28.7556 21.6279 28.0421 22.2062 27.218 22.199L27.253 18.1992ZM34.4 20C34.4 27.9529 27.9529 34.4 20 34.4V38.4C30.162 38.4 38.4 30.162 38.4 20H34.4ZM9.69015 8.95404C8.46386 10.0955 8.57839 12.0708 9.92837 13.0629L12.297 9.83963C12.9681 10.3327 13.025 11.3146 12.4155 11.882L9.69015 8.95404ZM18.1 13.386C18.1 15.0004 19.4782 16.271 21.0874 16.1399L20.7626 12.1531C21.483 12.0944 22.1 12.6632 22.1 13.386H18.1ZM5.6 20C5.6 12.0471 12.0471 5.6 20 5.6V1.6C9.83796 1.6 1.6 9.83796 1.6 20H5.6ZM17.1107 21.6C19.5348 21.6 21.5 19.6348 21.5 17.2107H17.5C17.5 17.4257 17.3257 17.6 17.1107 17.6V21.6ZM4.97022 18.7898C4.82826 20.305 6.02754 21.6105 7.54926 21.5974L7.51478 17.5976C8.36325 17.5902 9.03193 18.3182 8.95278 19.163L4.97022 18.7898ZM20 5.6C27.9529 5.6 34.4 12.0471 34.4 20H38.4C38.4 9.83796 30.162 1.6 20 1.6V5.6ZM18.1 32.6412C18.1 34.0871 19.4091 35.1802 20.8318 34.9222L20.1182 30.9864C21.1503 30.7992 22.1 31.5922 22.1 32.6412H18.1ZM30.3159 12.6107C31.3979 11.6653 31.4216 9.9905 30.3667 9.01491L27.6508 11.9516C26.9605 11.3131 26.976 10.2171 27.6841 9.59848L30.3159 12.6107ZM18.9099 26.7C20.3404 26.7 21.5 25.5404 21.5 24.1099H17.5C17.5 23.3312 18.1312 22.7 18.9099 22.7V26.7ZM31.3496 10.0695C30.501 9.27664 29.1845 9.20594 28.2552 9.94478L30.7444 13.0758C30.1022 13.5864 29.1994 13.5348 28.6188 12.9923L31.3496 10.0695ZM11.6511 18.5303C11.5309 20.1885 12.8437 21.6 14.5062 21.6V17.6C15.1668 17.6 15.6885 18.1609 15.6407 18.8197L11.6511 18.5303ZM20 34.4C12.0471 34.4 5.6 27.9529 5.6 20H1.6C1.6 30.162 9.83796 38.4 20 38.4V34.4ZM9.06644 27.1583C8.23078 28.0837 8.28197 29.5057 9.18201 30.3687L11.9503 27.4813C12.6113 28.1151 12.6489 29.1595 12.0352 29.8391L9.06644 27.1583ZM32.4507 21.5974C33.9725 21.6105 35.1717 20.305 35.0298 18.7898L31.0472 19.163C30.9681 18.3182 31.6368 17.5902 32.4852 17.5976L32.4507 21.5974ZM35.0172 20.9509C35.091 19.4878 33.9317 18.2577 32.4668 18.2448L32.4317 22.2447C31.6222 22.2376 30.9814 21.5577 31.0222 20.7491L35.0172 20.9509Z" fill="white" mask="url(#path-1-inside-1_43_1120)"/>
<path d="M48.0811 20.3431C48.0811 19.1064 48.3532 18.0346 48.8973 17.1277C49.458 16.2043 50.1835 15.4952 51.0739 15.0005C51.9809 14.4894 52.962 14.2338 54.0173 14.2338C54.8418 14.2338 55.5838 14.341 56.2434 14.5553C56.9029 14.7697 57.4965 15.0665 58.0242 15.4457C58.5684 15.8085 59.0383 16.2207 59.434 16.6824V13.2197C58.7085 12.6261 57.9253 12.1726 57.0843 11.8593C56.2434 11.546 55.188 11.3894 53.9184 11.3894C52.6487 11.3894 51.4614 11.6037 50.3566 12.0324C49.2684 12.4612 48.3202 13.0795 47.5122 13.8875C46.7043 14.6955 46.0694 15.6519 45.6077 16.7566C45.1625 17.8449 44.9399 19.0404 44.9399 20.3431C44.9399 21.6457 45.1625 22.8495 45.6077 23.9543C46.0694 25.0426 46.7043 25.9907 47.5122 26.7987C48.3202 27.6066 49.2684 28.225 50.3566 28.6537C51.4614 29.0824 52.6487 29.2968 53.9184 29.2968C55.188 29.2968 56.2434 29.1402 57.0843 28.8269C57.9253 28.5136 58.7085 28.0601 59.434 27.4665V24.0037C59.0383 24.4654 58.5684 24.8859 58.0242 25.2652C57.4965 25.6279 56.9029 25.9165 56.2434 26.1309C55.5838 26.3452 54.8418 26.4524 54.0173 26.4524C52.962 26.4524 51.9809 26.2051 51.0739 25.7104C50.1835 25.1992 49.458 24.4819 48.8973 23.5585C48.3532 22.6351 48.0811 21.5633 48.0811 20.3431ZM61.9422 23.3112C61.9422 24.4654 62.2061 25.496 62.7337 26.4029C63.2779 27.2934 64.0116 27.9941 64.935 28.5053C65.8585 29 66.9055 29.2473 68.0763 29.2473C69.247 29.2473 70.2858 29 71.1928 28.5053C72.1162 27.9941 72.8499 27.2934 73.3941 26.4029C73.9382 25.496 74.2103 24.4654 74.2103 23.3112C74.2103 22.1404 73.9382 21.1098 73.3941 20.2194C72.8499 19.329 72.1162 18.6364 71.1928 18.1418C70.2858 17.6306 69.247 17.375 68.0763 17.375C66.9055 17.375 65.8585 17.6306 64.935 18.1418C64.0116 18.6364 63.2779 19.329 62.7337 20.2194C62.2061 21.1098 61.9422 22.1404 61.9422 23.3112ZM64.6877 23.3112C64.6877 22.6021 64.8361 21.9755 65.1329 21.4314C65.4297 20.8872 65.8337 20.4668 66.3449 20.1699C66.8561 19.8731 67.4332 19.7247 68.0763 19.7247C68.7029 19.7247 69.2718 19.8731 69.7829 20.1699C70.3106 20.4668 70.7228 20.8872 71.0196 21.4314C71.3164 21.9755 71.4648 22.6021 71.4648 23.3112C71.4648 24.0202 71.3164 24.6468 71.0196 25.191C70.7228 25.7186 70.3106 26.1391 69.7829 26.4524C69.2718 26.7492 68.7029 26.8976 68.0763 26.8976C67.4332 26.8976 66.8561 26.7492 66.3449 26.4524C65.8337 26.1391 65.4297 25.7186 65.1329 25.191C64.8361 24.6468 64.6877 24.0202 64.6877 23.3112ZM90.6436 23.2864L85.672 10.8205L80.75 23.2864L76.6441 11.6862H73.2555L80.3295 29.9152L85.672 17.6718L91.0146 29.9152L98.0885 11.6862H94.7L90.6436 23.2864ZM97.1351 23.3112C97.1351 24.4654 97.3989 25.496 97.9266 26.4029C98.4707 27.2934 99.2045 27.9941 100.128 28.5053C101.051 29 102.098 29.2473 103.269 29.2473C104.44 29.2473 105.479 29 106.386 28.5053C107.309 27.9941 108.043 27.2934 108.587 26.4029C109.131 25.496 109.403 24.4654 109.403 23.3112C109.403 22.1404 109.131 21.1098 108.587 20.2194C108.043 19.329 107.309 18.6364 106.386 18.1418C105.479 17.6306 104.44 17.375 103.269 17.375C102.098 17.375 101.051 17.6306 100.128 18.1418C99.2045 18.6364 98.4707 19.329 97.9266 20.2194C97.3989 21.1098 97.1351 22.1404 97.1351 23.3112ZM99.8806 23.3112C99.8806 22.6021 100.029 21.9755 100.326 21.4314C100.623 20.8872 101.027 20.4668 101.538 20.1699C102.049 19.8731 102.626 19.7247 103.269 19.7247C103.896 19.7247 104.465 19.8731 104.976 20.1699C105.503 20.4668 105.916 20.8872 106.212 21.4314C106.509 21.9755 106.658 22.6021 106.658 23.3112C106.658 24.0202 106.509 24.6468 106.212 25.191C105.916 25.7186 105.503 26.1391 104.976 26.4524C104.465 26.7492 103.896 26.8976 103.269 26.8976C102.626 26.8976 102.049 26.7492 101.538 26.4524C101.027 26.1391 100.623 25.7186 100.326 25.191C100.029 24.6468 99.8806 24.0202 99.8806 23.3112ZM114.584 17.6223H111.938V29H114.584V17.6223ZM117.973 20.4668L119.259 18.216C119.012 17.9027 118.707 17.6883 118.344 17.5729C117.981 17.441 117.594 17.375 117.181 17.375C116.604 17.375 116.044 17.5811 115.5 17.9934C114.972 18.4056 114.535 18.9662 114.189 19.6753C113.859 20.3678 113.694 21.1676 113.694 22.0745L114.584 22.5939C114.584 22.0497 114.642 21.5798 114.758 21.184C114.889 20.7718 115.096 20.4503 115.376 20.2194C115.656 19.9886 116.019 19.8731 116.464 19.8731C116.794 19.8731 117.066 19.9226 117.28 20.0215C117.495 20.1205 117.726 20.2689 117.973 20.4668ZM121.092 9.70745V29H123.764V9.70745H121.092ZM135.737 9.70745V29H138.433V9.70745H135.737ZM126.314 23.3112C126.314 24.5479 126.569 25.6114 127.08 26.5019C127.591 27.3923 128.268 28.0766 129.108 28.5548C129.966 29.0165 130.881 29.2473 131.854 29.2473C132.81 29.2473 133.643 29.0082 134.352 28.5301C135.078 28.0519 135.647 27.3676 136.059 26.4771C136.487 25.5867 136.702 24.5314 136.702 23.3112C136.702 22.0745 136.487 21.0191 136.059 20.1452C135.647 19.2548 135.078 18.5705 134.352 18.0923C133.643 17.6141 132.81 17.375 131.854 17.375C130.881 17.375 129.966 17.6141 129.108 18.0923C128.268 18.554 127.591 19.2301 127.08 20.1205C126.569 20.9944 126.314 22.058 126.314 23.3112ZM129.084 23.3112C129.084 22.5527 129.24 21.9013 129.554 21.3572C129.867 20.813 130.279 20.4008 130.79 20.1205C131.318 19.8402 131.887 19.7 132.497 19.7C133.008 19.7 133.511 19.8402 134.006 20.1205C134.517 20.4008 134.929 20.813 135.243 21.3572C135.572 21.8848 135.737 22.5362 135.737 23.3112C135.737 24.0862 135.572 24.7457 135.243 25.2899C134.929 25.8176 134.517 26.2215 134.006 26.5019C133.511 26.7822 133.008 26.9223 132.497 26.9223C131.887 26.9223 131.318 26.7822 130.79 26.5019C130.279 26.2215 129.867 25.8093 129.554 25.2652C129.24 24.721 129.084 24.0697 129.084 23.3112Z" fill="white"/>
</svg>
