<svg width="24" height="20" viewBox="0 0 24 20" fill="none" xmlns="http://www.w3.org/2000/svg">
<path d="M8.64852 14.875H15.3516C15.4634 14.875 15.5548 14.7836 15.5548 14.6719V12.5391C15.5548 12.4274 15.4634 12.336 15.3516 12.336H14.336C14.2243 12.336 14.1329 12.4274 14.1329 12.5391V13.4532H9.86727V12.5391C9.86727 12.4274 9.77586 12.336 9.66414 12.336H8.64852C8.5368 12.336 8.44539 12.4274 8.44539 12.5391V14.6719C8.44539 14.7836 8.5368 14.875 8.64852 14.875ZM17.2813 11.752C17.2813 12.0213 17.3883 12.2797 17.5788 12.4701C17.7693 12.6606 18.0276 12.7676 18.297 12.7676C18.5663 12.7676 18.8246 12.6606 19.0151 12.4701C19.2056 12.2797 19.3126 12.0213 19.3126 11.752C19.3126 11.4826 19.2056 11.2243 19.0151 11.0338C18.8246 10.8434 18.5663 10.7364 18.297 10.7364C18.0276 10.7364 17.7693 10.8434 17.5788 11.0338C17.3883 11.2243 17.2813 11.4826 17.2813 11.752ZM23.3497 7.49651L22.7479 6.44534C22.7209 6.399 22.6766 6.36524 22.6247 6.35145C22.5729 6.33765 22.5177 6.34494 22.4712 6.3717L21.1839 7.12327L19.1958 1.63381C19.0908 1.30626 18.8845 1.02054 18.6065 0.817906C18.3286 0.615272 17.9935 0.506212 17.6495 0.50647H6.64774C5.76668 0.50647 4.98465 1.07522 4.71297 1.91565L2.81883 7.12581L1.52899 6.37424C1.48248 6.34747 1.42728 6.34019 1.37542 6.35399C1.32357 6.36778 1.27928 6.40154 1.25223 6.44788L0.650471 7.49651C0.594612 7.59299 0.62762 7.71487 0.724104 7.77073L2.2577 8.66448L1.88953 9.6801C1.85907 9.76135 1.84383 9.84768 1.84383 9.93401V18.775C1.84383 19.1737 2.14344 19.4961 2.5116 19.4961H4.22801C4.54031 19.4961 4.81199 19.26 4.87801 18.9299L5.07352 17.9727H18.9266L19.1222 18.9299C19.1907 19.26 19.4598 19.4961 19.7722 19.4961H21.4886C21.8567 19.4961 22.1563 19.1737 22.1563 18.775V9.93401C22.1563 9.84768 22.1411 9.76135 22.1106 9.6801L21.7425 8.66448L23.2735 7.77073C23.3196 7.74411 23.3534 7.70047 23.3677 7.64919C23.3819 7.59791 23.3755 7.54308 23.3497 7.49651V7.49651ZM20.3282 10.127V16.1446H3.67196V10.127L4.06805 9.03518H19.9321L20.3282 10.127ZM6.43192 2.53772L6.44461 2.50471L6.45477 2.4717C6.4827 2.38792 6.55887 2.33206 6.64774 2.33206H17.5048L19.4192 7.61331H4.58602L6.43192 2.53772ZM4.68758 11.752C4.68758 12.0213 4.79458 12.2797 4.98505 12.4701C5.17552 12.6606 5.43385 12.7676 5.70321 12.7676C5.97257 12.7676 6.23089 12.6606 6.42136 12.4701C6.61183 12.2797 6.71883 12.0213 6.71883 11.752C6.71883 11.4826 6.61183 11.2243 6.42136 11.0338C6.23089 10.8434 5.97257 10.7364 5.70321 10.7364C5.43385 10.7364 5.17552 10.8434 4.98505 11.0338C4.79458 11.2243 4.68758 11.4826 4.68758 11.752Z" fill="black"/>
</svg>
